<?xml version="1.0" encoding="UTF-8"?>
<!DOCTYPE svg PUBLIC "-//W3C//DTD SVG 1.1//EN" "http://www.w3.org/Graphics/SVG/1.1/DTD/svg11.dtd">
<svg xmlns="http://www.w3.org/2000/svg" version="1.1" width="900px" height="1060px" style="shape-rendering:geometricPrecision; text-rendering:geometricPrecision; image-rendering:optimizeQuality; fill-rule:evenodd; clip-rule:evenodd" xmlns:xlink="http://www.w3.org/1999/xlink">
<g><path style="opacity:1" fill="#fefffe" d="M -0.5,-0.5 C 6.16667,-0.5 12.8333,-0.5 19.5,-0.5C 19.5,6.16667 19.5,12.8333 19.5,19.5C 12.8333,19.5 6.16667,19.5 -0.5,19.5C -0.5,12.8333 -0.5,6.16667 -0.5,-0.5 Z"/></g>
<g><path style="opacity:1" fill="#eff0ef" d="M 19.5,-0.5 C 26.1667,-0.5 32.8333,-0.5 39.5,-0.5C 39.5,6.16667 39.5,12.8333 39.5,19.5C 32.8333,19.5 26.1667,19.5 19.5,19.5C 19.5,12.8333 19.5,6.16667 19.5,-0.5 Z"/></g>
<g><path style="opacity:1" fill="#fefffe" d="M 39.5,-0.5 C 46.1667,-0.5 52.8333,-0.5 59.5,-0.5C 59.5,6.16667 59.5,12.8333 59.5,19.5C 52.8333,19.5 46.1667,19.5 39.5,19.5C 39.5,12.8333 39.5,6.16667 39.5,-0.5 Z"/></g>
<g><path style="opacity:1" fill="#eff0ef" d="M 59.5,-0.5 C 66.1667,-0.5 72.8333,-0.5 79.5,-0.5C 79.5,6.16667 79.5,12.8333 79.5,19.5C 72.8333,19.5 66.1667,19.5 59.5,19.5C 59.5,12.8333 59.5,6.16667 59.5,-0.5 Z"/></g>
<g><path style="opacity:1" fill="#fefffe" d="M 79.5,-0.5 C 86.1667,-0.5 92.8333,-0.5 99.5,-0.5C 99.5,6.16667 99.5,12.8333 99.5,19.5C 92.8333,19.5 86.1667,19.5 79.5,19.5C 79.5,12.8333 79.5,6.16667 79.5,-0.5 Z"/></g>
<g><path style="opacity:1" fill="#eff0ef" d="M 99.5,-0.5 C 106.167,-0.5 112.833,-0.5 119.5,-0.5C 119.5,6.16667 119.5,12.8333 119.5,19.5C 112.833,19.5 106.167,19.5 99.5,19.5C 99.5,12.8333 99.5,6.16667 99.5,-0.5 Z"/></g>
<g><path style="opacity:1" fill="#fefffe" d="M 119.5,-0.5 C 126.167,-0.5 132.833,-0.5 139.5,-0.5C 139.5,6.16667 139.5,12.8333 139.5,19.5C 132.833,19.5 126.167,19.5 119.5,19.5C 119.5,12.8333 119.5,6.16667 119.5,-0.5 Z"/></g>
<g><path style="opacity:1" fill="#eff0ef" d="M 139.5,-0.5 C 146.167,-0.5 152.833,-0.5 159.5,-0.5C 159.5,6.16667 159.5,12.8333 159.5,19.5C 152.833,19.5 146.167,19.5 139.5,19.5C 139.5,12.8333 139.5,6.16667 139.5,-0.5 Z"/></g>
<g><path style="opacity:1" fill="#fefffe" d="M 159.5,-0.5 C 166.167,-0.5 172.833,-0.5 179.5,-0.5C 179.5,6.16667 179.5,12.8333 179.5,19.5C 172.833,19.5 166.167,19.5 159.5,19.5C 159.5,12.8333 159.5,6.16667 159.5,-0.5 Z"/></g>
<g><path style="opacity:1" fill="#eff0ef" d="M 179.5,-0.5 C 186.167,-0.5 192.833,-0.5 199.5,-0.5C 199.5,6.16667 199.5,12.8333 199.5,19.5C 192.833,19.5 186.167,19.5 179.5,19.5C 179.5,12.8333 179.5,6.16667 179.5,-0.5 Z"/></g>
<g><path style="opacity:1" fill="#fefffe" d="M 199.5,-0.5 C 206.167,-0.5 212.833,-0.5 219.5,-0.5C 219.5,6.16667 219.5,12.8333 219.5,19.5C 212.833,19.5 206.167,19.5 199.5,19.5C 199.5,12.8333 199.5,6.16667 199.5,-0.5 Z"/></g>
<g><path style="opacity:1" fill="#eff0ef" d="M 219.5,-0.5 C 226.167,-0.5 232.833,-0.5 239.5,-0.5C 239.5,6.16667 239.5,12.8333 239.5,19.5C 232.833,19.5 226.167,19.5 219.5,19.5C 219.5,12.8333 219.5,6.16667 219.5,-0.5 Z"/></g>
<g><path style="opacity:1" fill="#fefffe" d="M 239.5,-0.5 C 246.167,-0.5 252.833,-0.5 259.5,-0.5C 259.5,6.16667 259.5,12.8333 259.5,19.5C 252.833,19.5 246.167,19.5 239.5,19.5C 239.5,12.8333 239.5,6.16667 239.5,-0.5 Z"/></g>
<g><path style="opacity:1" fill="#eff0ef" d="M 259.5,-0.5 C 266.167,-0.5 272.833,-0.5 279.5,-0.5C 279.5,6.16667 279.5,12.8333 279.5,19.5C 272.833,19.5 266.167,19.5 259.5,19.5C 259.5,12.8333 259.5,6.16667 259.5,-0.5 Z"/></g>
<g><path style="opacity:1" fill="#fefffe" d="M 279.5,-0.5 C 286.167,-0.5 292.833,-0.5 299.5,-0.5C 299.5,6.16667 299.5,12.8333 299.5,19.5C 292.833,19.5 286.167,19.5 279.5,19.5C 279.5,12.8333 279.5,6.16667 279.5,-0.5 Z"/></g>
<g><path style="opacity:1" fill="#eff0ef" d="M 299.5,-0.5 C 306.167,-0.5 312.833,-0.5 319.5,-0.5C 319.5,6.16667 319.5,12.8333 319.5,19.5C 312.833,19.5 306.167,19.5 299.5,19.5C 299.5,12.8333 299.5,6.16667 299.5,-0.5 Z"/></g>
<g><path style="opacity:1" fill="#fefffe" d="M 319.5,-0.5 C 326.167,-0.5 332.833,-0.5 339.5,-0.5C 339.5,6.16667 339.5,12.8333 339.5,19.5C 332.833,19.5 326.167,19.5 319.5,19.5C 319.5,12.8333 319.5,6.16667 319.5,-0.5 Z"/></g>
<g><path style="opacity:1" fill="#eff0ef" d="M 339.5,-0.5 C 346.167,-0.5 352.833,-0.5 359.5,-0.5C 359.5,6.16667 359.5,12.8333 359.5,19.5C 352.833,19.5 346.167,19.5 339.5,19.5C 339.5,12.8333 339.5,6.16667 339.5,-0.5 Z"/></g>
<g><path style="opacity:1" fill="#fefffe" d="M 359.5,-0.5 C 366.167,-0.5 372.833,-0.5 379.5,-0.5C 379.5,6.16667 379.5,12.8333 379.5,19.5C 372.833,19.5 366.167,19.5 359.5,19.5C 359.5,12.8333 359.5,6.16667 359.5,-0.5 Z"/></g>
<g><path style="opacity:1" fill="#eff0ef" d="M 379.5,-0.5 C 386.167,-0.5 392.833,-0.5 399.5,-0.5C 399.5,6.16667 399.5,12.8333 399.5,19.5C 392.833,19.5 386.167,19.5 379.5,19.5C 379.5,12.8333 379.5,6.16667 379.5,-0.5 Z"/></g>
<g><path style="opacity:1" fill="#fefffe" d="M 399.5,-0.5 C 406.167,-0.5 412.833,-0.5 419.5,-0.5C 419.5,6.16667 419.5,12.8333 419.5,19.5C 412.833,19.5 406.167,19.5 399.5,19.5C 399.5,12.8333 399.5,6.16667 399.5,-0.5 Z"/></g>
<g><path style="opacity:1" fill="#eff0ef" d="M 419.5,-0.5 C 426.167,-0.5 432.833,-0.5 439.5,-0.5C 439.5,6.16667 439.5,12.8333 439.5,19.5C 432.833,19.5 426.167,19.5 419.5,19.5C 419.5,12.8333 419.5,6.16667 419.5,-0.5 Z"/></g>
<g><path style="opacity:1" fill="#fefffe" d="M 439.5,-0.5 C 446.167,-0.5 452.833,-0.5 459.5,-0.5C 459.5,6.16667 459.5,12.8333 459.5,19.5C 452.833,19.5 446.167,19.5 439.5,19.5C 439.5,12.8333 439.5,6.16667 439.5,-0.5 Z"/></g>
<g><path style="opacity:1" fill="#eff0ef" d="M 459.5,-0.5 C 466.167,-0.5 472.833,-0.5 479.5,-0.5C 479.5,6.16667 479.5,12.8333 479.5,19.5C 472.833,19.5 466.167,19.5 459.5,19.5C 459.5,12.8333 459.5,6.16667 459.5,-0.5 Z"/></g>
<g><path style="opacity:1" fill="#fefffe" d="M 479.5,-0.5 C 486.167,-0.5 492.833,-0.5 499.5,-0.5C 499.5,6.16667 499.5,12.8333 499.5,19.5C 492.833,19.5 486.167,19.5 479.5,19.5C 479.5,12.8333 479.5,6.16667 479.5,-0.5 Z"/></g>
<g><path style="opacity:1" fill="#eff0ef" d="M 499.5,-0.5 C 506.167,-0.5 512.833,-0.5 519.5,-0.5C 519.5,6.16667 519.5,12.8333 519.5,19.5C 512.833,19.5 506.167,19.5 499.5,19.5C 499.5,12.8333 499.5,6.16667 499.5,-0.5 Z"/></g>
<g><path style="opacity:1" fill="#fefffe" d="M 519.5,-0.5 C 526.167,-0.5 532.833,-0.5 539.5,-0.5C 539.5,6.16667 539.5,12.8333 539.5,19.5C 532.833,19.5 526.167,19.5 519.5,19.5C 519.5,12.8333 519.5,6.16667 519.5,-0.5 Z"/></g>
<g><path style="opacity:1" fill="#eff0ef" d="M 539.5,-0.5 C 546.167,-0.5 552.833,-0.5 559.5,-0.5C 559.5,6.16667 559.5,12.8333 559.5,19.5C 552.833,19.5 546.167,19.5 539.5,19.5C 539.5,12.8333 539.5,6.16667 539.5,-0.5 Z"/></g>
<g><path style="opacity:1" fill="#fefffe" d="M 559.5,-0.5 C 566.167,-0.5 572.833,-0.5 579.5,-0.5C 579.5,6.16667 579.5,12.8333 579.5,19.5C 572.833,19.5 566.167,19.5 559.5,19.5C 559.5,12.8333 559.5,6.16667 559.5,-0.5 Z"/></g>
<g><path style="opacity:1" fill="#eff0ef" d="M 579.5,-0.5 C 586.167,-0.5 592.833,-0.5 599.5,-0.5C 599.5,6.16667 599.5,12.8333 599.5,19.5C 592.833,19.5 586.167,19.5 579.5,19.5C 579.5,12.8333 579.5,6.16667 579.5,-0.5 Z"/></g>
<g><path style="opacity:1" fill="#fefffe" d="M 599.5,-0.5 C 606.167,-0.5 612.833,-0.5 619.5,-0.5C 619.5,6.16667 619.5,12.8333 619.5,19.5C 612.833,19.5 606.167,19.5 599.5,19.5C 599.5,12.8333 599.5,6.16667 599.5,-0.5 Z"/></g>
<g><path style="opacity:1" fill="#eff0ef" d="M 619.5,-0.5 C 626.167,-0.5 632.833,-0.5 639.5,-0.5C 639.5,6.16667 639.5,12.8333 639.5,19.5C 632.833,19.5 626.167,19.5 619.5,19.5C 619.5,12.8333 619.5,6.16667 619.5,-0.5 Z"/></g>
<g><path style="opacity:1" fill="#fefffe" d="M 639.5,-0.5 C 646.167,-0.5 652.833,-0.5 659.5,-0.5C 659.5,6.16667 659.5,12.8333 659.5,19.5C 652.833,19.5 646.167,19.5 639.5,19.5C 639.5,12.8333 639.5,6.16667 639.5,-0.5 Z"/></g>
<g><path style="opacity:1" fill="#eff0ef" d="M 659.5,-0.5 C 666.167,-0.5 672.833,-0.5 679.5,-0.5C 679.5,6.16667 679.5,12.8333 679.5,19.5C 672.833,19.5 666.167,19.5 659.5,19.5C 659.5,12.8333 659.5,6.16667 659.5,-0.5 Z"/></g>
<g><path style="opacity:1" fill="#fefffe" d="M 679.5,-0.5 C 686.167,-0.5 692.833,-0.5 699.5,-0.5C 699.5,6.16667 699.5,12.8333 699.5,19.5C 692.833,19.5 686.167,19.5 679.5,19.5C 679.5,12.8333 679.5,6.16667 679.5,-0.5 Z"/></g>
<g><path style="opacity:1" fill="#eff0ef" d="M 699.5,-0.5 C 706.167,-0.5 712.833,-0.5 719.5,-0.5C 719.5,6.16667 719.5,12.8333 719.5,19.5C 712.833,19.5 706.167,19.5 699.5,19.5C 699.5,12.8333 699.5,6.16667 699.5,-0.5 Z"/></g>
<g><path style="opacity:1" fill="#fefffe" d="M 719.5,-0.5 C 726.167,-0.5 732.833,-0.5 739.5,-0.5C 739.5,6.16667 739.5,12.8333 739.5,19.5C 732.833,19.5 726.167,19.5 719.5,19.5C 719.5,12.8333 719.5,6.16667 719.5,-0.5 Z"/></g>
<g><path style="opacity:1" fill="#eff0ef" d="M 739.5,-0.5 C 746.167,-0.5 752.833,-0.5 759.5,-0.5C 759.5,6.16667 759.5,12.8333 759.5,19.5C 752.833,19.5 746.167,19.5 739.5,19.5C 739.5,12.8333 739.5,6.16667 739.5,-0.5 Z"/></g>
<g><path style="opacity:1" fill="#fefffe" d="M 759.5,-0.5 C 766.167,-0.5 772.833,-0.5 779.5,-0.5C 779.5,6.16667 779.5,12.8333 779.5,19.5C 772.833,19.5 766.167,19.5 759.5,19.5C 759.5,12.8333 759.5,6.16667 759.5,-0.5 Z"/></g>
<g><path style="opacity:1" fill="#eff0ef" d="M 779.5,-0.5 C 786.167,-0.5 792.833,-0.5 799.5,-0.5C 799.5,6.16667 799.5,12.8333 799.5,19.5C 792.833,19.5 786.167,19.5 779.5,19.5C 779.5,12.8333 779.5,6.16667 779.5,-0.5 Z"/></g>
<g><path style="opacity:1" fill="#fefffe" d="M 799.5,-0.5 C 806.167,-0.5 812.833,-0.5 819.5,-0.5C 819.5,6.16667 819.5,12.8333 819.5,19.5C 812.833,19.5 806.167,19.5 799.5,19.5C 799.5,12.8333 799.5,6.16667 799.5,-0.5 Z"/></g>
<g><path style="opacity:1" fill="#eff0ef" d="M 819.5,-0.5 C 826.167,-0.5 832.833,-0.5 839.5,-0.5C 839.5,6.16667 839.5,12.8333 839.5,19.5C 832.833,19.5 826.167,19.5 819.5,19.5C 819.5,12.8333 819.5,6.16667 819.5,-0.5 Z"/></g>
<g><path style="opacity:1" fill="#fefffe" d="M 839.5,-0.5 C 846.167,-0.5 852.833,-0.5 859.5,-0.5C 859.5,6.16667 859.5,12.8333 859.5,19.5C 852.833,19.5 846.167,19.5 839.5,19.5C 839.5,12.8333 839.5,6.16667 839.5,-0.5 Z"/></g>
<g><path style="opacity:1" fill="#eff0ef" d="M 859.5,-0.5 C 866.167,-0.5 872.833,-0.5 879.5,-0.5C 879.5,6.16667 879.5,12.8333 879.5,19.5C 872.833,19.5 866.167,19.5 859.5,19.5C 859.5,12.8333 859.5,6.16667 859.5,-0.5 Z"/></g>
<g><path style="opacity:1" fill="#fefffe" d="M 879.5,-0.5 C 886.167,-0.5 892.833,-0.5 899.5,-0.5C 899.5,6.16667 899.5,12.8333 899.5,19.5C 892.833,19.5 886.167,19.5 879.5,19.5C 879.5,12.8333 879.5,6.16667 879.5,-0.5 Z"/></g>
<g><path style="opacity:1" fill="#eff0ef" d="M -0.5,19.5 C 6.16667,19.5 12.8333,19.5 19.5,19.5C 19.5,26.1667 19.5,32.8333 19.5,39.5C 12.8333,39.5 6.16667,39.5 -0.5,39.5C -0.5,32.8333 -0.5,26.1667 -0.5,19.5 Z"/></g>
<g><path style="opacity:1" fill="#fefffe" d="M 19.5,19.5 C 26.1667,19.5 32.8333,19.5 39.5,19.5C 39.5,26.1667 39.5,32.8333 39.5,39.5C 32.8333,39.5 26.1667,39.5 19.5,39.5C 19.5,32.8333 19.5,26.1667 19.5,19.5 Z"/></g>
<g><path style="opacity:1" fill="#eff0ef" d="M 39.5,19.5 C 46.1667,19.5 52.8333,19.5 59.5,19.5C 59.5,26.1667 59.5,32.8333 59.5,39.5C 52.8333,39.5 46.1667,39.5 39.5,39.5C 39.5,32.8333 39.5,26.1667 39.5,19.5 Z"/></g>
<g><path style="opacity:1" fill="#fefffe" d="M 59.5,19.5 C 66.1667,19.5 72.8333,19.5 79.5,19.5C 79.5,26.1667 79.5,32.8333 79.5,39.5C 72.8333,39.5 66.1667,39.5 59.5,39.5C 59.5,32.8333 59.5,26.1667 59.5,19.5 Z"/></g>
<g><path style="opacity:1" fill="#eff0ef" d="M 79.5,19.5 C 86.1667,19.5 92.8333,19.5 99.5,19.5C 99.5,26.1667 99.5,32.8333 99.5,39.5C 92.8333,39.5 86.1667,39.5 79.5,39.5C 79.5,32.8333 79.5,26.1667 79.5,19.5 Z"/></g>
<g><path style="opacity:1" fill="#fefffe" d="M 99.5,19.5 C 106.167,19.5 112.833,19.5 119.5,19.5C 119.5,26.1667 119.5,32.8333 119.5,39.5C 112.833,39.5 106.167,39.5 99.5,39.5C 99.5,32.8333 99.5,26.1667 99.5,19.5 Z"/></g>
<g><path style="opacity:1" fill="#eff0ef" d="M 119.5,19.5 C 126.167,19.5 132.833,19.5 139.5,19.5C 139.5,26.1667 139.5,32.8333 139.5,39.5C 132.833,39.5 126.167,39.5 119.5,39.5C 119.5,32.8333 119.5,26.1667 119.5,19.5 Z"/></g>
<g><path style="opacity:1" fill="#fefffe" d="M 139.5,19.5 C 146.167,19.5 152.833,19.5 159.5,19.5C 159.5,26.1667 159.5,32.8333 159.5,39.5C 152.833,39.5 146.167,39.5 139.5,39.5C 139.5,32.8333 139.5,26.1667 139.5,19.5 Z"/></g>
<g><path style="opacity:1" fill="#eff0ef" d="M 159.5,19.5 C 166.167,19.5 172.833,19.5 179.5,19.5C 179.5,26.1667 179.5,32.8333 179.5,39.5C 172.833,39.5 166.167,39.5 159.5,39.5C 159.5,32.8333 159.5,26.1667 159.5,19.5 Z"/></g>
<g><path style="opacity:1" fill="#fefffe" d="M 179.5,19.5 C 186.167,19.5 192.833,19.5 199.5,19.5C 199.5,26.1667 199.5,32.8333 199.5,39.5C 192.833,39.5 186.167,39.5 179.5,39.5C 179.5,32.8333 179.5,26.1667 179.5,19.5 Z"/></g>
<g><path style="opacity:1" fill="#eff0ef" d="M 199.5,19.5 C 206.167,19.5 212.833,19.5 219.5,19.5C 219.5,26.1667 219.5,32.8333 219.5,39.5C 212.833,39.5 206.167,39.5 199.5,39.5C 199.5,32.8333 199.5,26.1667 199.5,19.5 Z"/></g>
<g><path style="opacity:1" fill="#fefffe" d="M 219.5,19.5 C 226.167,19.5 232.833,19.5 239.5,19.5C 239.5,26.1667 239.5,32.8333 239.5,39.5C 232.833,39.5 226.167,39.5 219.5,39.5C 219.5,32.8333 219.5,26.1667 219.5,19.5 Z"/></g>
<g><path style="opacity:1" fill="#eff0ef" d="M 239.5,19.5 C 246.167,19.5 252.833,19.5 259.5,19.5C 259.5,26.1667 259.5,32.8333 259.5,39.5C 252.833,39.5 246.167,39.5 239.5,39.5C 239.5,32.8333 239.5,26.1667 239.5,19.5 Z"/></g>
<g><path style="opacity:1" fill="#fefffe" d="M 259.5,19.5 C 266.167,19.5 272.833,19.5 279.5,19.5C 279.5,26.1667 279.5,32.8333 279.5,39.5C 272.833,39.5 266.167,39.5 259.5,39.5C 259.5,32.8333 259.5,26.1667 259.5,19.5 Z"/></g>
<g><path style="opacity:1" fill="#eff0ef" d="M 279.5,19.5 C 286.167,19.5 292.833,19.5 299.5,19.5C 299.5,26.1667 299.5,32.8333 299.5,39.5C 292.833,39.5 286.167,39.5 279.5,39.5C 279.5,32.8333 279.5,26.1667 279.5,19.5 Z"/></g>
<g><path style="opacity:1" fill="#fefffe" d="M -0.5,39.5 C 6.16667,39.5 12.8333,39.5 19.5,39.5C 19.5,46.1667 19.5,52.8333 19.5,59.5C 12.8333,59.5 6.16667,59.5 -0.5,59.5C -0.5,52.8333 -0.5,46.1667 -0.5,39.5 Z"/></g>
<g><path style="opacity:1" fill="#eff0ef" d="M 19.5,39.5 C 26.1667,39.5 32.8333,39.5 39.5,39.5C 39.5,46.1667 39.5,52.8333 39.5,59.5C 32.8333,59.5 26.1667,59.5 19.5,59.5C 19.5,52.8333 19.5,46.1667 19.5,39.5 Z"/></g>
<g><path style="opacity:1" fill="#fefffe" d="M 39.5,39.5 C 46.1667,39.5 52.8333,39.5 59.5,39.5C 59.5,46.1667 59.5,52.8333 59.5,59.5C 52.8333,59.5 46.1667,59.5 39.5,59.5C 39.5,52.8333 39.5,46.1667 39.5,39.5 Z"/></g>
<g><path style="opacity:1" fill="#eff0ef" d="M 59.5,39.5 C 66.1667,39.5 72.8333,39.5 79.5,39.5C 79.5,46.1667 79.5,52.8333 79.5,59.5C 72.8333,59.5 66.1667,59.5 59.5,59.5C 59.5,52.8333 59.5,46.1667 59.5,39.5 Z"/></g>
<g><path style="opacity:1" fill="#fefffe" d="M 79.5,39.5 C 86.1667,39.5 92.8333,39.5 99.5,39.5C 99.5,46.1667 99.5,52.8333 99.5,59.5C 92.8333,59.5 86.1667,59.5 79.5,59.5C 79.5,52.8333 79.5,46.1667 79.5,39.5 Z"/></g>
<g><path style="opacity:1" fill="#eff0ef" d="M 99.5,39.5 C 106.167,39.5 112.833,39.5 119.5,39.5C 119.5,46.1667 119.5,52.8333 119.5,59.5C 112.833,59.5 106.167,59.5 99.5,59.5C 99.5,52.8333 99.5,46.1667 99.5,39.5 Z"/></g>
<g><path style="opacity:1" fill="#fefffe" d="M 119.5,39.5 C 126.167,39.5 132.833,39.5 139.5,39.5C 139.5,46.1667 139.5,52.8333 139.5,59.5C 132.833,59.5 126.167,59.5 119.5,59.5C 119.5,52.8333 119.5,46.1667 119.5,39.5 Z"/></g>
<g><path style="opacity:1" fill="#eff0ef" d="M 139.5,39.5 C 146.167,39.5 152.833,39.5 159.5,39.5C 159.5,46.1667 159.5,52.8333 159.5,59.5C 152.833,59.5 146.167,59.5 139.5,59.5C 139.5,52.8333 139.5,46.1667 139.5,39.5 Z"/></g>
<g><path style="opacity:1" fill="#fefffe" d="M 159.5,39.5 C 166.167,39.5 172.833,39.5 179.5,39.5C 179.5,46.1667 179.5,52.8333 179.5,59.5C 172.833,59.5 166.167,59.5 159.5,59.5C 159.5,52.8333 159.5,46.1667 159.5,39.5 Z"/></g>
<g><path style="opacity:1" fill="#eff0ef" d="M 179.5,39.5 C 186.167,39.5 192.833,39.5 199.5,39.5C 199.5,46.1667 199.5,52.8333 199.5,59.5C 192.833,59.5 186.167,59.5 179.5,59.5C 179.5,52.8333 179.5,46.1667 179.5,39.5 Z"/></g>
<g><path style="opacity:1" fill="#fefffe" d="M 199.5,39.5 C 206.167,39.5 212.833,39.5 219.5,39.5C 219.5,46.1667 219.5,52.8333 219.5,59.5C 212.833,59.5 206.167,59.5 199.5,59.5C 199.5,52.8333 199.5,46.1667 199.5,39.5 Z"/></g>
<g><path style="opacity:1" fill="#eff0ef" d="M 219.5,39.5 C 226.167,39.5 232.833,39.5 239.5,39.5C 239.5,46.1667 239.5,52.8333 239.5,59.5C 232.833,59.5 226.167,59.5 219.5,59.5C 219.5,52.8333 219.5,46.1667 219.5,39.5 Z"/></g>
<g><path style="opacity:1" fill="#fefffe" d="M 239.5,39.5 C 246.167,39.5 252.833,39.5 259.5,39.5C 259.5,46.1667 259.5,52.8333 259.5,59.5C 252.833,59.5 246.167,59.5 239.5,59.5C 239.5,52.8333 239.5,46.1667 239.5,39.5 Z"/></g>
<g><path style="opacity:1" fill="#eff0ef" d="M 259.5,39.5 C 266.167,39.5 272.833,39.5 279.5,39.5C 279.5,46.1667 279.5,52.8333 279.5,59.5C 272.833,59.5 266.167,59.5 259.5,59.5C 259.5,52.8333 259.5,46.1667 259.5,39.5 Z"/></g>
<g><path style="opacity:1" fill="#f7f7f7" d="M 299.5,19.5 C 306.167,19.5 312.833,19.5 319.5,19.5C 326.167,19.5 332.833,19.5 339.5,19.5C 346.167,19.5 352.833,19.5 359.5,19.5C 366.167,19.5 372.833,19.5 379.5,19.5C 386.167,19.5 392.833,19.5 399.5,19.5C 406.167,19.5 412.833,19.5 419.5,19.5C 426.167,19.5 432.833,19.5 439.5,19.5C 446.167,19.5 452.833,19.5 459.5,19.5C 466.167,19.5 472.833,19.5 479.5,19.5C 486.167,19.5 492.833,19.5 499.5,19.5C 506.167,19.5 512.833,19.5 519.5,19.5C 526.167,19.5 532.833,19.5 539.5,19.5C 546.167,19.5 552.833,19.5 559.5,19.5C 566.167,19.5 572.833,19.5 579.5,19.5C 586.167,19.5 592.833,19.5 599.5,19.5C 606.167,19.5 612.833,19.5 619.5,19.5C 626.167,19.5 632.833,19.5 639.5,19.5C 646.167,19.5 652.833,19.5 659.5,19.5C 666.167,19.5 672.833,19.5 679.5,19.5C 686.167,19.5 692.833,19.5 699.5,19.5C 706.167,19.5 712.833,19.5 719.5,19.5C 726.167,19.5 732.833,19.5 739.5,19.5C 746.167,19.5 752.833,19.5 759.5,19.5C 766.167,19.5 772.833,19.5 779.5,19.5C 786.167,19.5 792.833,19.5 799.5,19.5C 806.167,19.5 812.833,19.5 819.5,19.5C 826.167,19.5 832.833,19.5 839.5,19.5C 846.167,19.5 852.833,19.5 859.5,19.5C 866.167,19.5 872.833,19.5 879.5,19.5C 886.167,19.5 892.833,19.5 899.5,19.5C 899.5,139.5 899.5,259.5 899.5,379.5C 892.833,379.5 886.167,379.5 879.5,379.5C 879.5,372.833 879.5,366.167 879.5,359.5C 872.833,359.5 866.167,359.5 859.5,359.5C 859.5,352.833 859.5,346.167 859.5,339.5C 852.833,339.5 846.167,339.5 839.5,339.5C 839.5,332.833 839.5,326.167 839.5,319.5C 832.833,319.5 826.167,319.5 819.5,319.5C 819.5,312.833 819.5,306.167 819.5,299.5C 812.833,299.5 806.167,299.5 799.5,299.5C 799.5,292.833 799.5,286.167 799.5,279.5C 792.833,279.5 786.167,279.5 779.5,279.5C 779.5,272.833 779.5,266.167 779.5,259.5C 772.833,259.5 766.167,259.5 759.5,259.5C 759.5,252.833 759.5,246.167 759.5,239.5C 752.833,239.5 746.167,239.5 739.5,239.5C 756.194,213.293 773.527,187.46 791.5,162C 790.956,161.283 790.289,160.783 789.5,160.5C 755.832,132.984 719.165,109.984 679.5,91.5C 679.5,87.5 679.5,83.5 679.5,79.5C 672.833,79.5 666.167,79.5 659.5,79.5C 659.5,72.8333 659.5,66.1667 659.5,59.5C 652.833,59.5 646.167,59.5 639.5,59.5C 639.5,52.8333 639.5,46.1667 639.5,39.5C 632.833,39.5 626.167,39.5 619.5,39.5C 619.5,46.1667 619.5,52.8333 619.5,59.5C 612.833,59.5 606.167,59.5 599.5,59.5C 599.5,52.8333 599.5,46.1667 599.5,39.5C 592.833,39.5 586.167,39.5 579.5,39.5C 579.5,44.8333 579.5,50.1667 579.5,55.5C 578.5,55.5 577.5,55.5 576.5,55.5C 522.505,43.2956 467.838,38.7956 412.5,42C 398.349,42.8552 384.349,44.6886 370.5,47.5C 307.348,57.0863 252.014,82.7529 204.5,124.5C 175.495,151.193 153.495,182.86 138.5,219.5C 132.167,219.5 125.833,219.5 119.5,219.5C 119.5,212.833 119.5,206.167 119.5,199.5C 119.5,192.833 119.5,186.167 119.5,179.5C 119.5,172.833 119.5,166.167 119.5,159.5C 126.167,159.5 132.833,159.5 139.5,159.5C 139.5,152.833 139.5,146.167 139.5,139.5C 146.167,139.5 152.833,139.5 159.5,139.5C 159.5,132.833 159.5,126.167 159.5,119.5C 166.167,119.5 172.833,119.5 179.5,119.5C 179.5,112.833 179.5,106.167 179.5,99.5C 186.167,99.5 192.833,99.5 199.5,99.5C 199.5,92.8333 199.5,86.1667 199.5,79.5C 206.167,79.5 212.833,79.5 219.5,79.5C 219.5,72.8333 219.5,66.1667 219.5,59.5C 226.167,59.5 232.833,59.5 239.5,59.5C 246.167,59.5 252.833,59.5 259.5,59.5C 266.167,59.5 272.833,59.5 279.5,59.5C 279.5,52.8333 279.5,46.1667 279.5,39.5C 286.167,39.5 292.833,39.5 299.5,39.5C 299.5,32.8333 299.5,26.1667 299.5,19.5 Z"/></g>
<g><path style="opacity:1" fill="#eff0f0" d="M 679.5,91.5 C 646.224,76.2977 611.891,64.2977 576.5,55.5C 577.5,55.5 578.5,55.5 579.5,55.5C 579.5,50.1667 579.5,44.8333 579.5,39.5C 586.167,39.5 592.833,39.5 599.5,39.5C 599.5,46.1667 599.5,52.8333 599.5,59.5C 606.167,59.5 612.833,59.5 619.5,59.5C 619.5,52.8333 619.5,46.1667 619.5,39.5C 626.167,39.5 632.833,39.5 639.5,39.5C 639.5,46.1667 639.5,52.8333 639.5,59.5C 646.167,59.5 652.833,59.5 659.5,59.5C 659.5,66.1667 659.5,72.8333 659.5,79.5C 666.167,79.5 672.833,79.5 679.5,79.5C 679.5,83.5 679.5,87.5 679.5,91.5 Z"/></g>
<g><path style="opacity:1" fill="#1f2c5e" d="M 576.5,55.5 C 611.891,64.2977 646.224,76.2977 679.5,91.5C 719.165,109.984 755.832,132.984 789.5,160.5C 786.34,162.504 782.673,163.671 778.5,164C 664.151,184.225 549.818,204.558 435.5,225C 434.584,225.278 433.918,225.778 433.5,226.5C 417.813,228.616 402.147,230.949 386.5,233.5C 385.5,233.5 384.5,233.5 383.5,233.5C 379.261,171.494 374.928,109.494 370.5,47.5C 384.349,44.6886 398.349,42.8552 412.5,42C 467.838,38.7956 522.505,43.2956 576.5,55.5 Z"/></g>
<g><path style="opacity:1" fill="#018bbe" d="M 370.5,47.5 C 374.928,109.494 379.261,171.494 383.5,233.5C 384.5,233.5 385.5,233.5 386.5,233.5C 368.154,238.929 352.32,248.596 339,262.5C 327.217,276.683 321.717,293.017 322.5,311.5C 322.167,311.5 321.833,311.5 321.5,311.5C 282.861,248.878 243.861,186.545 204.5,124.5C 252.014,82.7529 307.348,57.0863 370.5,47.5 Z"/></g>
<g><path style="opacity:1" fill="#eff0ef" d="M -0.5,59.5 C 6.16667,59.5 12.8333,59.5 19.5,59.5C 19.5,66.1667 19.5,72.8333 19.5,79.5C 12.8333,79.5 6.16667,79.5 -0.5,79.5C -0.5,72.8333 -0.5,66.1667 -0.5,59.5 Z"/></g>
<g><path style="opacity:1" fill="#fefffe" d="M 19.5,59.5 C 26.1667,59.5 32.8333,59.5 39.5,59.5C 39.5,66.1667 39.5,72.8333 39.5,79.5C 32.8333,79.5 26.1667,79.5 19.5,79.5C 19.5,72.8333 19.5,66.1667 19.5,59.5 Z"/></g>
<g><path style="opacity:1" fill="#eff0ef" d="M 39.5,59.5 C 46.1667,59.5 52.8333,59.5 59.5,59.5C 59.5,66.1667 59.5,72.8333 59.5,79.5C 52.8333,79.5 46.1667,79.5 39.5,79.5C 39.5,72.8333 39.5,66.1667 39.5,59.5 Z"/></g>
<g><path style="opacity:1" fill="#fefffe" d="M 59.5,59.5 C 66.1667,59.5 72.8333,59.5 79.5,59.5C 79.5,66.1667 79.5,72.8333 79.5,79.5C 72.8333,79.5 66.1667,79.5 59.5,79.5C 59.5,72.8333 59.5,66.1667 59.5,59.5 Z"/></g>
<g><path style="opacity:1" fill="#eff0ef" d="M 79.5,59.5 C 86.1667,59.5 92.8333,59.5 99.5,59.5C 99.5,66.1667 99.5,72.8333 99.5,79.5C 92.8333,79.5 86.1667,79.5 79.5,79.5C 79.5,72.8333 79.5,66.1667 79.5,59.5 Z"/></g>
<g><path style="opacity:1" fill="#fefffe" d="M 99.5,59.5 C 106.167,59.5 112.833,59.5 119.5,59.5C 119.5,66.1667 119.5,72.8333 119.5,79.5C 112.833,79.5 106.167,79.5 99.5,79.5C 99.5,72.8333 99.5,66.1667 99.5,59.5 Z"/></g>
<g><path style="opacity:1" fill="#eff0ef" d="M 119.5,59.5 C 126.167,59.5 132.833,59.5 139.5,59.5C 139.5,66.1667 139.5,72.8333 139.5,79.5C 132.833,79.5 126.167,79.5 119.5,79.5C 119.5,72.8333 119.5,66.1667 119.5,59.5 Z"/></g>
<g><path style="opacity:1" fill="#fefffe" d="M 139.5,59.5 C 146.167,59.5 152.833,59.5 159.5,59.5C 159.5,66.1667 159.5,72.8333 159.5,79.5C 152.833,79.5 146.167,79.5 139.5,79.5C 139.5,72.8333 139.5,66.1667 139.5,59.5 Z"/></g>
<g><path style="opacity:1" fill="#eff0ef" d="M 159.5,59.5 C 166.167,59.5 172.833,59.5 179.5,59.5C 179.5,66.1667 179.5,72.8333 179.5,79.5C 172.833,79.5 166.167,79.5 159.5,79.5C 159.5,72.8333 159.5,66.1667 159.5,59.5 Z"/></g>
<g><path style="opacity:1" fill="#fefffe" d="M 179.5,59.5 C 186.167,59.5 192.833,59.5 199.5,59.5C 199.5,66.1667 199.5,72.8333 199.5,79.5C 192.833,79.5 186.167,79.5 179.5,79.5C 179.5,72.8333 179.5,66.1667 179.5,59.5 Z"/></g>
<g><path style="opacity:1" fill="#eff0ef" d="M 199.5,59.5 C 206.167,59.5 212.833,59.5 219.5,59.5C 219.5,66.1667 219.5,72.8333 219.5,79.5C 212.833,79.5 206.167,79.5 199.5,79.5C 199.5,72.8333 199.5,66.1667 199.5,59.5 Z"/></g>
<g><path style="opacity:1" fill="#fefffe" d="M -0.5,79.5 C 6.16667,79.5 12.8333,79.5 19.5,79.5C 19.5,86.1667 19.5,92.8333 19.5,99.5C 12.8333,99.5 6.16667,99.5 -0.5,99.5C -0.5,92.8333 -0.5,86.1667 -0.5,79.5 Z"/></g>
<g><path style="opacity:1" fill="#eff0ef" d="M 19.5,79.5 C 26.1667,79.5 32.8333,79.5 39.5,79.5C 39.5,86.1667 39.5,92.8333 39.5,99.5C 32.8333,99.5 26.1667,99.5 19.5,99.5C 19.5,92.8333 19.5,86.1667 19.5,79.5 Z"/></g>
<g><path style="opacity:1" fill="#fefffe" d="M 39.5,79.5 C 46.1667,79.5 52.8333,79.5 59.5,79.5C 59.5,86.1667 59.5,92.8333 59.5,99.5C 52.8333,99.5 46.1667,99.5 39.5,99.5C 39.5,92.8333 39.5,86.1667 39.5,79.5 Z"/></g>
<g><path style="opacity:1" fill="#eff0ef" d="M 59.5,79.5 C 66.1667,79.5 72.8333,79.5 79.5,79.5C 79.5,86.1667 79.5,92.8333 79.5,99.5C 72.8333,99.5 66.1667,99.5 59.5,99.5C 59.5,92.8333 59.5,86.1667 59.5,79.5 Z"/></g>
<g><path style="opacity:1" fill="#fefffe" d="M 79.5,79.5 C 86.1667,79.5 92.8333,79.5 99.5,79.5C 99.5,86.1667 99.5,92.8333 99.5,99.5C 92.8333,99.5 86.1667,99.5 79.5,99.5C 79.5,92.8333 79.5,86.1667 79.5,79.5 Z"/></g>
<g><path style="opacity:1" fill="#eff0ef" d="M 99.5,79.5 C 106.167,79.5 112.833,79.5 119.5,79.5C 119.5,86.1667 119.5,92.8333 119.5,99.5C 112.833,99.5 106.167,99.5 99.5,99.5C 99.5,92.8333 99.5,86.1667 99.5,79.5 Z"/></g>
<g><path style="opacity:1" fill="#fefffe" d="M 119.5,79.5 C 126.167,79.5 132.833,79.5 139.5,79.5C 139.5,86.1667 139.5,92.8333 139.5,99.5C 132.833,99.5 126.167,99.5 119.5,99.5C 119.5,92.8333 119.5,86.1667 119.5,79.5 Z"/></g>
<g><path style="opacity:1" fill="#eff0ef" d="M 139.5,79.5 C 146.167,79.5 152.833,79.5 159.5,79.5C 159.5,86.1667 159.5,92.8333 159.5,99.5C 152.833,99.5 146.167,99.5 139.5,99.5C 139.5,92.8333 139.5,86.1667 139.5,79.5 Z"/></g>
<g><path style="opacity:1" fill="#fefffe" d="M 159.5,79.5 C 166.167,79.5 172.833,79.5 179.5,79.5C 179.5,86.1667 179.5,92.8333 179.5,99.5C 172.833,99.5 166.167,99.5 159.5,99.5C 159.5,92.8333 159.5,86.1667 159.5,79.5 Z"/></g>
<g><path style="opacity:1" fill="#eff0ef" d="M 179.5,79.5 C 186.167,79.5 192.833,79.5 199.5,79.5C 199.5,86.1667 199.5,92.8333 199.5,99.5C 192.833,99.5 186.167,99.5 179.5,99.5C 179.5,92.8333 179.5,86.1667 179.5,79.5 Z"/></g>
<g><path style="opacity:1" fill="#eff0ef" d="M -0.5,99.5 C 6.16667,99.5 12.8333,99.5 19.5,99.5C 19.5,106.167 19.5,112.833 19.5,119.5C 12.8333,119.5 6.16667,119.5 -0.5,119.5C -0.5,112.833 -0.5,106.167 -0.5,99.5 Z"/></g>
<g><path style="opacity:1" fill="#fefffe" d="M 19.5,99.5 C 26.1667,99.5 32.8333,99.5 39.5,99.5C 39.5,106.167 39.5,112.833 39.5,119.5C 32.8333,119.5 26.1667,119.5 19.5,119.5C 19.5,112.833 19.5,106.167 19.5,99.5 Z"/></g>
<g><path style="opacity:1" fill="#eff0ef" d="M 39.5,99.5 C 46.1667,99.5 52.8333,99.5 59.5,99.5C 59.5,106.167 59.5,112.833 59.5,119.5C 52.8333,119.5 46.1667,119.5 39.5,119.5C 39.5,112.833 39.5,106.167 39.5,99.5 Z"/></g>
<g><path style="opacity:1" fill="#fefffe" d="M 59.5,99.5 C 66.1667,99.5 72.8333,99.5 79.5,99.5C 79.5,106.167 79.5,112.833 79.5,119.5C 72.8333,119.5 66.1667,119.5 59.5,119.5C 59.5,112.833 59.5,106.167 59.5,99.5 Z"/></g>
<g><path style="opacity:1" fill="#eff0ef" d="M 79.5,99.5 C 86.1667,99.5 92.8333,99.5 99.5,99.5C 99.5,106.167 99.5,112.833 99.5,119.5C 92.8333,119.5 86.1667,119.5 79.5,119.5C 79.5,112.833 79.5,106.167 79.5,99.5 Z"/></g>
<g><path style="opacity:1" fill="#fefffe" d="M 99.5,99.5 C 106.167,99.5 112.833,99.5 119.5,99.5C 119.5,106.167 119.5,112.833 119.5,119.5C 112.833,119.5 106.167,119.5 99.5,119.5C 99.5,112.833 99.5,106.167 99.5,99.5 Z"/></g>
<g><path style="opacity:1" fill="#eff0ef" d="M 119.5,99.5 C 126.167,99.5 132.833,99.5 139.5,99.5C 139.5,106.167 139.5,112.833 139.5,119.5C 132.833,119.5 126.167,119.5 119.5,119.5C 119.5,112.833 119.5,106.167 119.5,99.5 Z"/></g>
<g><path style="opacity:1" fill="#fefffe" d="M 139.5,99.5 C 146.167,99.5 152.833,99.5 159.5,99.5C 159.5,106.167 159.5,112.833 159.5,119.5C 152.833,119.5 146.167,119.5 139.5,119.5C 139.5,112.833 139.5,106.167 139.5,99.5 Z"/></g>
<g><path style="opacity:1" fill="#eff0ef" d="M 159.5,99.5 C 166.167,99.5 172.833,99.5 179.5,99.5C 179.5,106.167 179.5,112.833 179.5,119.5C 172.833,119.5 166.167,119.5 159.5,119.5C 159.5,112.833 159.5,106.167 159.5,99.5 Z"/></g>
<g><path style="opacity:1" fill="#fefffe" d="M -0.5,119.5 C 6.16667,119.5 12.8333,119.5 19.5,119.5C 19.5,126.167 19.5,132.833 19.5,139.5C 12.8333,139.5 6.16667,139.5 -0.5,139.5C -0.5,132.833 -0.5,126.167 -0.5,119.5 Z"/></g>
<g><path style="opacity:1" fill="#eff0ef" d="M 19.5,119.5 C 26.1667,119.5 32.8333,119.5 39.5,119.5C 39.5,126.167 39.5,132.833 39.5,139.5C 32.8333,139.5 26.1667,139.5 19.5,139.5C 19.5,132.833 19.5,126.167 19.5,119.5 Z"/></g>
<g><path style="opacity:1" fill="#fefffe" d="M 39.5,119.5 C 46.1667,119.5 52.8333,119.5 59.5,119.5C 59.5,126.167 59.5,132.833 59.5,139.5C 52.8333,139.5 46.1667,139.5 39.5,139.5C 39.5,132.833 39.5,126.167 39.5,119.5 Z"/></g>
<g><path style="opacity:1" fill="#eff0ef" d="M 59.5,119.5 C 66.1667,119.5 72.8333,119.5 79.5,119.5C 79.5,126.167 79.5,132.833 79.5,139.5C 72.8333,139.5 66.1667,139.5 59.5,139.5C 59.5,132.833 59.5,126.167 59.5,119.5 Z"/></g>
<g><path style="opacity:1" fill="#fefffe" d="M 79.5,119.5 C 86.1667,119.5 92.8333,119.5 99.5,119.5C 99.5,126.167 99.5,132.833 99.5,139.5C 92.8333,139.5 86.1667,139.5 79.5,139.5C 79.5,132.833 79.5,126.167 79.5,119.5 Z"/></g>
<g><path style="opacity:1" fill="#eff0ef" d="M 99.5,119.5 C 106.167,119.5 112.833,119.5 119.5,119.5C 119.5,126.167 119.5,132.833 119.5,139.5C 112.833,139.5 106.167,139.5 99.5,139.5C 99.5,132.833 99.5,126.167 99.5,119.5 Z"/></g>
<g><path style="opacity:1" fill="#fefffe" d="M 119.5,119.5 C 126.167,119.5 132.833,119.5 139.5,119.5C 139.5,126.167 139.5,132.833 139.5,139.5C 132.833,139.5 126.167,139.5 119.5,139.5C 119.5,132.833 119.5,126.167 119.5,119.5 Z"/></g>
<g><path style="opacity:1" fill="#eff0ef" d="M 139.5,119.5 C 146.167,119.5 152.833,119.5 159.5,119.5C 159.5,126.167 159.5,132.833 159.5,139.5C 152.833,139.5 146.167,139.5 139.5,139.5C 139.5,132.833 139.5,126.167 139.5,119.5 Z"/></g>
<g><path style="opacity:1" fill="#1f2c5e" d="M 204.5,124.5 C 243.861,186.545 282.861,248.878 321.5,311.5C 260.34,350.47 199.007,389.304 137.5,428C 135.975,429.009 134.308,429.509 132.5,429.5C 125.223,404.851 120.556,379.851 118.5,354.5C 116.327,320.386 119.161,286.72 127,253.5C 129.947,241.826 133.78,230.493 138.5,219.5C 153.495,182.86 175.495,151.193 204.5,124.5 Z"/></g>
<g><path style="opacity:1" fill="#eff0ef" d="M -0.5,139.5 C 6.16667,139.5 12.8333,139.5 19.5,139.5C 19.5,146.167 19.5,152.833 19.5,159.5C 12.8333,159.5 6.16667,159.5 -0.5,159.5C -0.5,152.833 -0.5,146.167 -0.5,139.5 Z"/></g>
<g><path style="opacity:1" fill="#fefffe" d="M 19.5,139.5 C 26.1667,139.5 32.8333,139.5 39.5,139.5C 39.5,146.167 39.5,152.833 39.5,159.5C 32.8333,159.5 26.1667,159.5 19.5,159.5C 19.5,152.833 19.5,146.167 19.5,139.5 Z"/></g>
<g><path style="opacity:1" fill="#eff0ef" d="M 39.5,139.5 C 46.1667,139.5 52.8333,139.5 59.5,139.5C 59.5,146.167 59.5,152.833 59.5,159.5C 52.8333,159.5 46.1667,159.5 39.5,159.5C 39.5,152.833 39.5,146.167 39.5,139.5 Z"/></g>
<g><path style="opacity:1" fill="#fefffe" d="M 59.5,139.5 C 66.1667,139.5 72.8333,139.5 79.5,139.5C 79.5,146.167 79.5,152.833 79.5,159.5C 72.8333,159.5 66.1667,159.5 59.5,159.5C 59.5,152.833 59.5,146.167 59.5,139.5 Z"/></g>
<g><path style="opacity:1" fill="#eff0ef" d="M 79.5,139.5 C 86.1667,139.5 92.8333,139.5 99.5,139.5C 99.5,146.167 99.5,152.833 99.5,159.5C 92.8333,159.5 86.1667,159.5 79.5,159.5C 79.5,152.833 79.5,146.167 79.5,139.5 Z"/></g>
<g><path style="opacity:1" fill="#fefffe" d="M 99.5,139.5 C 106.167,139.5 112.833,139.5 119.5,139.5C 119.5,146.167 119.5,152.833 119.5,159.5C 112.833,159.5 106.167,159.5 99.5,159.5C 99.5,152.833 99.5,146.167 99.5,139.5 Z"/></g>
<g><path style="opacity:1" fill="#eff0ef" d="M 119.5,139.5 C 126.167,139.5 132.833,139.5 139.5,139.5C 139.5,146.167 139.5,152.833 139.5,159.5C 132.833,159.5 126.167,159.5 119.5,159.5C 119.5,152.833 119.5,146.167 119.5,139.5 Z"/></g>
<g><path style="opacity:1" fill="#fefffe" d="M -0.5,159.5 C 6.16667,159.5 12.8333,159.5 19.5,159.5C 19.5,166.167 19.5,172.833 19.5,179.5C 12.8333,179.5 6.16667,179.5 -0.5,179.5C -0.5,172.833 -0.5,166.167 -0.5,159.5 Z"/></g>
<g><path style="opacity:1" fill="#eff0ef" d="M 19.5,159.5 C 26.1667,159.5 32.8333,159.5 39.5,159.5C 39.5,166.167 39.5,172.833 39.5,179.5C 32.8333,179.5 26.1667,179.5 19.5,179.5C 19.5,172.833 19.5,166.167 19.5,159.5 Z"/></g>
<g><path style="opacity:1" fill="#fefffe" d="M 39.5,159.5 C 46.1667,159.5 52.8333,159.5 59.5,159.5C 59.5,166.167 59.5,172.833 59.5,179.5C 52.8333,179.5 46.1667,179.5 39.5,179.5C 39.5,172.833 39.5,166.167 39.5,159.5 Z"/></g>
<g><path style="opacity:1" fill="#eff0ef" d="M 59.5,159.5 C 66.1667,159.5 72.8333,159.5 79.5,159.5C 79.5,166.167 79.5,172.833 79.5,179.5C 72.8333,179.5 66.1667,179.5 59.5,179.5C 59.5,172.833 59.5,166.167 59.5,159.5 Z"/></g>
<g><path style="opacity:1" fill="#fefffe" d="M 79.5,159.5 C 86.1667,159.5 92.8333,159.5 99.5,159.5C 99.5,166.167 99.5,172.833 99.5,179.5C 92.8333,179.5 86.1667,179.5 79.5,179.5C 79.5,172.833 79.5,166.167 79.5,159.5 Z"/></g>
<g><path style="opacity:1" fill="#eff0ef" d="M 99.5,159.5 C 106.167,159.5 112.833,159.5 119.5,159.5C 119.5,166.167 119.5,172.833 119.5,179.5C 112.833,179.5 106.167,179.5 99.5,179.5C 99.5,172.833 99.5,166.167 99.5,159.5 Z"/></g>
<g><path style="opacity:1" fill="#025489" d="M 789.5,160.5 C 790.289,160.783 790.956,161.283 791.5,162C 773.527,187.46 756.194,213.293 739.5,239.5C 721.253,266.263 702.753,292.93 684,319.5C 637.277,285.551 586.443,259.051 531.5,240C 501.578,230.516 470.911,226.016 439.5,226.5C 437.5,226.5 435.5,226.5 433.5,226.5C 433.918,225.778 434.584,225.278 435.5,225C 549.818,204.558 664.151,184.225 778.5,164C 782.673,163.671 786.34,162.504 789.5,160.5 Z"/></g>
<g><path style="opacity:1" fill="#eff0ef" d="M -0.5,179.5 C 6.16667,179.5 12.8333,179.5 19.5,179.5C 19.5,186.167 19.5,192.833 19.5,199.5C 12.8333,199.5 6.16667,199.5 -0.5,199.5C -0.5,192.833 -0.5,186.167 -0.5,179.5 Z"/></g>
<g><path style="opacity:1" fill="#fefffe" d="M 19.5,179.5 C 26.1667,179.5 32.8333,179.5 39.5,179.5C 39.5,186.167 39.5,192.833 39.5,199.5C 32.8333,199.5 26.1667,199.5 19.5,199.5C 19.5,192.833 19.5,186.167 19.5,179.5 Z"/></g>
<g><path style="opacity:1" fill="#eff0ef" d="M 39.5,179.5 C 46.1667,179.5 52.8333,179.5 59.5,179.5C 59.5,186.167 59.5,192.833 59.5,199.5C 52.8333,199.5 46.1667,199.5 39.5,199.5C 39.5,192.833 39.5,186.167 39.5,179.5 Z"/></g>
<g><path style="opacity:1" fill="#fefffe" d="M 59.5,179.5 C 66.1667,179.5 72.8333,179.5 79.5,179.5C 79.5,186.167 79.5,192.833 79.5,199.5C 72.8333,199.5 66.1667,199.5 59.5,199.5C 59.5,192.833 59.5,186.167 59.5,179.5 Z"/></g>
<g><path style="opacity:1" fill="#eff0ef" d="M 79.5,179.5 C 86.1667,179.5 92.8333,179.5 99.5,179.5C 99.5,186.167 99.5,192.833 99.5,199.5C 92.8333,199.5 86.1667,199.5 79.5,199.5C 79.5,192.833 79.5,186.167 79.5,179.5 Z"/></g>
<g><path style="opacity:1" fill="#fefffe" d="M 99.5,179.5 C 106.167,179.5 112.833,179.5 119.5,179.5C 119.5,186.167 119.5,192.833 119.5,199.5C 112.833,199.5 106.167,199.5 99.5,199.5C 99.5,192.833 99.5,186.167 99.5,179.5 Z"/></g>
<g><path style="opacity:1" fill="#fefffe" d="M -0.5,199.5 C 6.16667,199.5 12.8333,199.5 19.5,199.5C 19.5,206.167 19.5,212.833 19.5,219.5C 12.8333,219.5 6.16667,219.5 -0.5,219.5C -0.5,212.833 -0.5,206.167 -0.5,199.5 Z"/></g>
<g><path style="opacity:1" fill="#eff0ef" d="M 19.5,199.5 C 26.1667,199.5 32.8333,199.5 39.5,199.5C 39.5,206.167 39.5,212.833 39.5,219.5C 32.8333,219.5 26.1667,219.5 19.5,219.5C 19.5,212.833 19.5,206.167 19.5,199.5 Z"/></g>
<g><path style="opacity:1" fill="#fefffe" d="M 39.5,199.5 C 46.1667,199.5 52.8333,199.5 59.5,199.5C 59.5,206.167 59.5,212.833 59.5,219.5C 52.8333,219.5 46.1667,219.5 39.5,219.5C 39.5,212.833 39.5,206.167 39.5,199.5 Z"/></g>
<g><path style="opacity:1" fill="#eff0ef" d="M 59.5,199.5 C 66.1667,199.5 72.8333,199.5 79.5,199.5C 79.5,206.167 79.5,212.833 79.5,219.5C 72.8333,219.5 66.1667,219.5 59.5,219.5C 59.5,212.833 59.5,206.167 59.5,199.5 Z"/></g>
<g><path style="opacity:1" fill="#fefffe" d="M 79.5,199.5 C 86.1667,199.5 92.8333,199.5 99.5,199.5C 99.5,206.167 99.5,212.833 99.5,219.5C 92.8333,219.5 86.1667,219.5 79.5,219.5C 79.5,212.833 79.5,206.167 79.5,199.5 Z"/></g>
<g><path style="opacity:1" fill="#eff0ef" d="M 99.5,199.5 C 106.167,199.5 112.833,199.5 119.5,199.5C 119.5,206.167 119.5,212.833 119.5,219.5C 112.833,219.5 106.167,219.5 99.5,219.5C 99.5,212.833 99.5,206.167 99.5,199.5 Z"/></g>
<g><path style="opacity:1" fill="#eff0ef" d="M -0.5,219.5 C 6.16667,219.5 12.8333,219.5 19.5,219.5C 19.5,226.167 19.5,232.833 19.5,239.5C 12.8333,239.5 6.16667,239.5 -0.5,239.5C -0.5,232.833 -0.5,226.167 -0.5,219.5 Z"/></g>
<g><path style="opacity:1" fill="#fefffe" d="M 19.5,219.5 C 26.1667,219.5 32.8333,219.5 39.5,219.5C 39.5,226.167 39.5,232.833 39.5,239.5C 32.8333,239.5 26.1667,239.5 19.5,239.5C 19.5,232.833 19.5,226.167 19.5,219.5 Z"/></g>
<g><path style="opacity:1" fill="#eff0ef" d="M 39.5,219.5 C 46.1667,219.5 52.8333,219.5 59.5,219.5C 59.5,226.167 59.5,232.833 59.5,239.5C 52.8333,239.5 46.1667,239.5 39.5,239.5C 39.5,232.833 39.5,226.167 39.5,219.5 Z"/></g>
<g><path style="opacity:1" fill="#fefffe" d="M 59.5,219.5 C 66.1667,219.5 72.8333,219.5 79.5,219.5C 79.5,226.167 79.5,232.833 79.5,239.5C 72.8333,239.5 66.1667,239.5 59.5,239.5C 59.5,232.833 59.5,226.167 59.5,219.5 Z"/></g>
<g><path style="opacity:1" fill="#eff0ef" d="M 79.5,219.5 C 86.1667,219.5 92.8333,219.5 99.5,219.5C 99.5,226.167 99.5,232.833 99.5,239.5C 92.8333,239.5 86.1667,239.5 79.5,239.5C 79.5,232.833 79.5,226.167 79.5,219.5 Z"/></g>
<g><path style="opacity:1" fill="#fefffe" d="M -0.5,239.5 C 6.16667,239.5 12.8333,239.5 19.5,239.5C 19.5,246.167 19.5,252.833 19.5,259.5C 12.8333,259.5 6.16667,259.5 -0.5,259.5C -0.5,252.833 -0.5,246.167 -0.5,239.5 Z"/></g>
<g><path style="opacity:1" fill="#eff0ef" d="M 19.5,239.5 C 26.1667,239.5 32.8333,239.5 39.5,239.5C 39.5,246.167 39.5,252.833 39.5,259.5C 32.8333,259.5 26.1667,259.5 19.5,259.5C 19.5,252.833 19.5,246.167 19.5,239.5 Z"/></g>
<g><path style="opacity:1" fill="#fefffe" d="M 39.5,239.5 C 46.1667,239.5 52.8333,239.5 59.5,239.5C 59.5,246.167 59.5,252.833 59.5,259.5C 52.8333,259.5 46.1667,259.5 39.5,259.5C 39.5,252.833 39.5,246.167 39.5,239.5 Z"/></g>
<g><path style="opacity:1" fill="#eff0ef" d="M 59.5,239.5 C 66.1667,239.5 72.8333,239.5 79.5,239.5C 79.5,246.167 79.5,252.833 79.5,259.5C 72.8333,259.5 66.1667,259.5 59.5,259.5C 59.5,252.833 59.5,246.167 59.5,239.5 Z"/></g>
<g><path style="opacity:1" fill="#f7f7f7" d="M 99.5,219.5 C 106.167,219.5 112.833,219.5 119.5,219.5C 125.833,219.5 132.167,219.5 138.5,219.5C 133.78,230.493 129.947,241.826 127,253.5C 119.161,286.72 116.327,320.386 118.5,354.5C 118.5,356.167 118.5,357.833 118.5,359.5C 112.167,359.5 105.833,359.5 99.5,359.5C 99.5,366.167 99.5,372.833 99.5,379.5C 106.167,379.5 112.833,379.5 119.5,379.5C 119.5,386.167 119.5,392.833 119.5,399.5C 112.833,399.5 106.167,399.5 99.5,399.5C 99.5,406.167 99.5,412.833 99.5,419.5C 106.167,419.5 112.833,419.5 119.5,419.5C 119.5,426.167 119.5,432.833 119.5,439.5C 125.167,439.5 130.833,439.5 136.5,439.5C 149.13,472.244 168.797,500.077 195.5,523C 227.93,548.391 263.596,568.391 302.5,583C 334.994,595.205 367.994,605.705 401.5,614.5C 446.152,625.232 490.152,638.232 533.5,653.5C 553.449,661.308 572.116,671.475 589.5,684C 612.383,704.989 620.383,730.822 613.5,761.5C 606.811,785.525 592.477,803.525 570.5,815.5C 536.18,830.882 500.18,836.882 462.5,833.5C 396.26,829.641 335.26,809.974 279.5,774.5C 279.5,769.5 279.5,764.5 279.5,759.5C 272.833,759.5 266.167,759.5 259.5,759.5C 259.5,752.833 259.5,746.167 259.5,739.5C 252.833,739.5 246.167,739.5 239.5,739.5C 239.5,732.833 239.5,726.167 239.5,719.5C 232.833,719.5 226.167,719.5 219.5,719.5C 219.5,712.833 219.5,706.167 219.5,699.5C 212.833,699.5 206.167,699.5 199.5,699.5C 199.5,706.167 199.5,712.833 199.5,719.5C 192.833,719.5 186.167,719.5 179.5,719.5C 179.5,726.167 179.5,732.833 179.5,739.5C 172.833,739.5 166.167,739.5 159.5,739.5C 159.5,746.167 159.5,752.833 159.5,759.5C 152.833,759.5 146.167,759.5 139.5,759.5C 139.5,766.167 139.5,772.833 139.5,779.5C 132.833,779.5 126.167,779.5 119.5,779.5C 119.5,786.167 119.5,792.833 119.5,799.5C 112.833,799.5 106.167,799.5 99.5,799.5C 99.5,806.167 99.5,812.833 99.5,819.5C 106.022,819.177 112.355,819.51 118.5,820.5C 107.152,835.171 95.3189,849.504 83,863.5C 82.0181,864.759 81.6848,866.092 82,867.5C 135.481,916.347 196.315,953.681 264.5,979.5C 288.446,989.147 313.113,996.813 338.5,1002.5C 339.452,1008.07 339.786,1013.74 339.5,1019.5C 346.167,1019.5 352.833,1019.5 359.5,1019.5C 359.5,1026.17 359.5,1032.83 359.5,1039.5C 366.167,1039.5 372.833,1039.5 379.5,1039.5C 379.5,1046.17 379.5,1052.83 379.5,1059.5C 252.833,1059.5 126.167,1059.5 -0.5,1059.5C -0.5,1052.83 -0.5,1046.17 -0.5,1039.5C 6.16667,1039.5 12.8333,1039.5 19.5,1039.5C 26.1667,1039.5 32.8333,1039.5 39.5,1039.5C 46.1667,1039.5 52.8333,1039.5 59.5,1039.5C 59.5,1032.83 59.5,1026.17 59.5,1019.5C 59.5,1012.83 59.5,1006.17 59.5,999.5C 59.5,992.833 59.5,986.167 59.5,979.5C 59.5,972.833 59.5,966.167 59.5,959.5C 59.5,952.833 59.5,946.167 59.5,939.5C 59.5,932.833 59.5,926.167 59.5,919.5C 59.5,912.833 59.5,906.167 59.5,899.5C 59.5,892.833 59.5,886.167 59.5,879.5C 59.5,872.833 59.5,866.167 59.5,859.5C 59.5,852.833 59.5,846.167 59.5,839.5C 66.1667,839.5 72.8333,839.5 79.5,839.5C 79.5,832.833 79.5,826.167 79.5,819.5C 79.5,812.833 79.5,806.167 79.5,799.5C 79.5,792.833 79.5,786.167 79.5,779.5C 79.5,772.833 79.5,766.167 79.5,759.5C 79.5,752.833 79.5,746.167 79.5,739.5C 79.5,732.833 79.5,726.167 79.5,719.5C 79.5,712.833 79.5,706.167 79.5,699.5C 79.5,692.833 79.5,686.167 79.5,679.5C 79.5,672.833 79.5,666.167 79.5,659.5C 79.5,652.833 79.5,646.167 79.5,639.5C 79.5,632.833 79.5,626.167 79.5,619.5C 79.5,612.833 79.5,606.167 79.5,599.5C 79.5,592.833 79.5,586.167 79.5,579.5C 79.5,572.833 79.5,566.167 79.5,559.5C 79.5,552.833 79.5,546.167 79.5,539.5C 79.5,532.833 79.5,526.167 79.5,519.5C 79.5,512.833 79.5,506.167 79.5,499.5C 79.5,492.833 79.5,486.167 79.5,479.5C 79.5,472.833 79.5,466.167 79.5,459.5C 79.5,452.833 79.5,446.167 79.5,439.5C 79.5,432.833 79.5,426.167 79.5,419.5C 79.5,412.833 79.5,406.167 79.5,399.5C 79.5,392.833 79.5,386.167 79.5,379.5C 79.5,372.833 79.5,366.167 79.5,359.5C 79.5,352.833 79.5,346.167 79.5,339.5C 79.5,332.833 79.5,326.167 79.5,319.5C 79.5,312.833 79.5,306.167 79.5,299.5C 79.5,292.833 79.5,286.167 79.5,279.5C 79.5,272.833 79.5,266.167 79.5,259.5C 79.5,252.833 79.5,246.167 79.5,239.5C 86.1667,239.5 92.8333,239.5 99.5,239.5C 99.5,232.833 99.5,226.167 99.5,219.5 Z"/></g>
<g><path style="opacity:1" fill="#f8f8f8" d="M 433.5,226.5 C 435.5,226.5 437.5,226.5 439.5,226.5C 439.5,230.833 439.5,235.167 439.5,239.5C 446.167,239.5 452.833,239.5 459.5,239.5C 459.5,246.167 459.5,252.833 459.5,259.5C 466.167,259.5 472.833,259.5 479.5,259.5C 479.5,266.167 479.5,272.833 479.5,279.5C 486.167,279.5 492.833,279.5 499.5,279.5C 499.5,286.167 499.5,292.833 499.5,299.5C 506.167,299.5 512.833,299.5 519.5,299.5C 519.5,306.167 519.5,312.833 519.5,319.5C 526.167,319.5 532.833,319.5 539.5,319.5C 539.5,326.167 539.5,332.833 539.5,339.5C 546.167,339.5 552.833,339.5 559.5,339.5C 559.5,346.167 559.5,352.833 559.5,359.5C 566.167,359.5 572.833,359.5 579.5,359.5C 579.5,366.167 579.5,372.833 579.5,379.5C 586.167,379.5 592.833,379.5 599.5,379.5C 599.5,386.167 599.5,392.833 599.5,399.5C 606.167,399.5 612.833,399.5 619.5,399.5C 619.5,406.167 619.5,412.833 619.5,419.5C 626.167,419.5 632.833,419.5 639.5,419.5C 639.5,426.167 639.5,432.833 639.5,439.5C 632.833,439.5 626.167,439.5 619.5,439.5C 619.5,446.167 619.5,452.833 619.5,459.5C 613.5,459.5 607.5,459.5 601.5,459.5C 601.167,459.5 600.833,459.5 600.5,459.5C 599.54,452.922 599.207,446.255 599.5,439.5C 592.833,439.5 586.167,439.5 579.5,439.5C 579.5,432.833 579.5,426.167 579.5,419.5C 572.833,419.5 566.167,419.5 559.5,419.5C 559.5,426.167 559.5,432.833 559.5,439.5C 552.833,439.5 546.167,439.5 539.5,439.5C 539.5,432.833 539.5,426.167 539.5,419.5C 532.833,419.5 526.167,419.5 519.5,419.5C 519.821,424.695 519.487,429.695 518.5,434.5C 511.843,433.587 505.509,431.921 499.5,429.5C 499.5,426.167 499.5,422.833 499.5,419.5C 492.833,419.5 486.167,419.5 479.5,419.5C 479.5,412.833 479.5,406.167 479.5,399.5C 472.833,399.5 466.167,399.5 459.5,399.5C 459.5,405.833 459.5,412.167 459.5,418.5C 433.18,411.56 407.513,402.727 382.5,392C 363.747,384.143 347.747,372.643 334.5,357.5C 326.135,343.378 322.135,328.045 322.5,311.5C 321.717,293.017 327.217,276.683 339,262.5C 352.32,248.596 368.154,238.929 386.5,233.5C 402.147,230.949 417.813,228.616 433.5,226.5 Z"/></g>
<g><path style="opacity:1" fill="#f6f6f6" d="M 439.5,226.5 C 470.911,226.016 501.578,230.516 531.5,240C 586.443,259.051 637.277,285.551 684,319.5C 702.753,292.93 721.253,266.263 739.5,239.5C 746.167,239.5 752.833,239.5 759.5,239.5C 759.5,246.167 759.5,252.833 759.5,259.5C 766.167,259.5 772.833,259.5 779.5,259.5C 779.5,266.167 779.5,272.833 779.5,279.5C 786.167,279.5 792.833,279.5 799.5,279.5C 799.5,286.167 799.5,292.833 799.5,299.5C 806.167,299.5 812.833,299.5 819.5,299.5C 819.5,306.167 819.5,312.833 819.5,319.5C 826.167,319.5 832.833,319.5 839.5,319.5C 839.5,326.167 839.5,332.833 839.5,339.5C 846.167,339.5 852.833,339.5 859.5,339.5C 859.5,346.167 859.5,352.833 859.5,359.5C 866.167,359.5 872.833,359.5 879.5,359.5C 879.5,366.167 879.5,372.833 879.5,379.5C 886.167,379.5 892.833,379.5 899.5,379.5C 899.5,479.5 899.5,579.5 899.5,679.5C 892.833,679.5 886.167,679.5 879.5,679.5C 879.5,672.833 879.5,666.167 879.5,659.5C 872.833,659.5 866.167,659.5 859.5,659.5C 859.5,652.833 859.5,646.167 859.5,639.5C 852.833,639.5 846.167,639.5 839.5,639.5C 839.5,632.833 839.5,626.167 839.5,619.5C 832.833,619.5 826.167,619.5 819.5,619.5C 819.5,612.833 819.5,606.167 819.5,599.5C 812.833,599.5 806.167,599.5 799.5,599.5C 799.5,592.833 799.5,586.167 799.5,579.5C 793.5,579.5 787.5,579.5 781.5,579.5C 779.408,576.319 777.075,573.319 774.5,570.5C 770.845,565.514 766.845,560.847 762.5,556.5C 755.373,547.539 747.373,539.372 738.5,532C 714.673,513.198 689.006,497.198 661.5,484C 641.601,475.318 621.601,467.152 601.5,459.5C 607.5,459.5 613.5,459.5 619.5,459.5C 619.5,452.833 619.5,446.167 619.5,439.5C 626.167,439.5 632.833,439.5 639.5,439.5C 639.5,432.833 639.5,426.167 639.5,419.5C 632.833,419.5 626.167,419.5 619.5,419.5C 619.5,412.833 619.5,406.167 619.5,399.5C 612.833,399.5 606.167,399.5 599.5,399.5C 599.5,392.833 599.5,386.167 599.5,379.5C 592.833,379.5 586.167,379.5 579.5,379.5C 579.5,372.833 579.5,366.167 579.5,359.5C 572.833,359.5 566.167,359.5 559.5,359.5C 559.5,352.833 559.5,346.167 559.5,339.5C 552.833,339.5 546.167,339.5 539.5,339.5C 539.5,332.833 539.5,326.167 539.5,319.5C 532.833,319.5 526.167,319.5 519.5,319.5C 519.5,312.833 519.5,306.167 519.5,299.5C 512.833,299.5 506.167,299.5 499.5,299.5C 499.5,292.833 499.5,286.167 499.5,279.5C 492.833,279.5 486.167,279.5 479.5,279.5C 479.5,272.833 479.5,266.167 479.5,259.5C 472.833,259.5 466.167,259.5 459.5,259.5C 459.5,252.833 459.5,246.167 459.5,239.5C 452.833,239.5 446.167,239.5 439.5,239.5C 439.5,235.167 439.5,230.833 439.5,226.5 Z"/></g>
<g><path style="opacity:1" fill="#eff0ef" d="M -0.5,259.5 C 6.16667,259.5 12.8333,259.5 19.5,259.5C 19.5,266.167 19.5,272.833 19.5,279.5C 12.8333,279.5 6.16667,279.5 -0.5,279.5C -0.5,272.833 -0.5,266.167 -0.5,259.5 Z"/></g>
<g><path style="opacity:1" fill="#fefffe" d="M 19.5,259.5 C 26.1667,259.5 32.8333,259.5 39.5,259.5C 39.5,266.167 39.5,272.833 39.5,279.5C 32.8333,279.5 26.1667,279.5 19.5,279.5C 19.5,272.833 19.5,266.167 19.5,259.5 Z"/></g>
<g><path style="opacity:1" fill="#eff0ef" d="M 39.5,259.5 C 46.1667,259.5 52.8333,259.5 59.5,259.5C 59.5,266.167 59.5,272.833 59.5,279.5C 52.8333,279.5 46.1667,279.5 39.5,279.5C 39.5,272.833 39.5,266.167 39.5,259.5 Z"/></g>
<g><path style="opacity:1" fill="#fefffe" d="M 59.5,259.5 C 66.1667,259.5 72.8333,259.5 79.5,259.5C 79.5,266.167 79.5,272.833 79.5,279.5C 72.8333,279.5 66.1667,279.5 59.5,279.5C 59.5,272.833 59.5,266.167 59.5,259.5 Z"/></g>
<g><path style="opacity:1" fill="#fefffe" d="M -0.5,279.5 C 6.16667,279.5 12.8333,279.5 19.5,279.5C 19.5,286.167 19.5,292.833 19.5,299.5C 12.8333,299.5 6.16667,299.5 -0.5,299.5C -0.5,292.833 -0.5,286.167 -0.5,279.5 Z"/></g>
<g><path style="opacity:1" fill="#eff0ef" d="M 19.5,279.5 C 26.1667,279.5 32.8333,279.5 39.5,279.5C 39.5,286.167 39.5,292.833 39.5,299.5C 32.8333,299.5 26.1667,299.5 19.5,299.5C 19.5,292.833 19.5,286.167 19.5,279.5 Z"/></g>
<g><path style="opacity:1" fill="#fefffe" d="M 39.5,279.5 C 46.1667,279.5 52.8333,279.5 59.5,279.5C 59.5,286.167 59.5,292.833 59.5,299.5C 52.8333,299.5 46.1667,299.5 39.5,299.5C 39.5,292.833 39.5,286.167 39.5,279.5 Z"/></g>
<g><path style="opacity:1" fill="#eff0ef" d="M 59.5,279.5 C 66.1667,279.5 72.8333,279.5 79.5,279.5C 79.5,286.167 79.5,292.833 79.5,299.5C 72.8333,299.5 66.1667,299.5 59.5,299.5C 59.5,292.833 59.5,286.167 59.5,279.5 Z"/></g>
<g><path style="opacity:1" fill="#eff0ef" d="M -0.5,299.5 C 6.16667,299.5 12.8333,299.5 19.5,299.5C 19.5,306.167 19.5,312.833 19.5,319.5C 12.8333,319.5 6.16667,319.5 -0.5,319.5C -0.5,312.833 -0.5,306.167 -0.5,299.5 Z"/></g>
<g><path style="opacity:1" fill="#fefffe" d="M 19.5,299.5 C 26.1667,299.5 32.8333,299.5 39.5,299.5C 39.5,306.167 39.5,312.833 39.5,319.5C 32.8333,319.5 26.1667,319.5 19.5,319.5C 19.5,312.833 19.5,306.167 19.5,299.5 Z"/></g>
<g><path style="opacity:1" fill="#eff0ef" d="M 39.5,299.5 C 46.1667,299.5 52.8333,299.5 59.5,299.5C 59.5,306.167 59.5,312.833 59.5,319.5C 52.8333,319.5 46.1667,319.5 39.5,319.5C 39.5,312.833 39.5,306.167 39.5,299.5 Z"/></g>
<g><path style="opacity:1" fill="#fefffe" d="M 59.5,299.5 C 66.1667,299.5 72.8333,299.5 79.5,299.5C 79.5,306.167 79.5,312.833 79.5,319.5C 72.8333,319.5 66.1667,319.5 59.5,319.5C 59.5,312.833 59.5,306.167 59.5,299.5 Z"/></g>
<g><path style="opacity:1" fill="#01a9c2" d="M 321.5,311.5 C 321.833,311.5 322.167,311.5 322.5,311.5C 322.135,328.045 326.135,343.378 334.5,357.5C 356.977,443.253 379.31,528.919 401.5,614.5C 367.994,605.705 334.994,595.205 302.5,583C 263.596,568.391 227.93,548.391 195.5,523C 168.797,500.077 149.13,472.244 136.5,439.5C 135.167,436.167 133.833,432.833 132.5,429.5C 134.308,429.509 135.975,429.009 137.5,428C 199.007,389.304 260.34,350.47 321.5,311.5 Z"/></g>
<g><path style="opacity:1" fill="#fefffe" d="M -0.5,319.5 C 6.16667,319.5 12.8333,319.5 19.5,319.5C 19.5,326.167 19.5,332.833 19.5,339.5C 12.8333,339.5 6.16667,339.5 -0.5,339.5C -0.5,332.833 -0.5,326.167 -0.5,319.5 Z"/></g>
<g><path style="opacity:1" fill="#eff0ef" d="M 19.5,319.5 C 26.1667,319.5 32.8333,319.5 39.5,319.5C 39.5,326.167 39.5,332.833 39.5,339.5C 32.8333,339.5 26.1667,339.5 19.5,339.5C 19.5,332.833 19.5,326.167 19.5,319.5 Z"/></g>
<g><path style="opacity:1" fill="#fefffe" d="M 39.5,319.5 C 46.1667,319.5 52.8333,319.5 59.5,319.5C 59.5,326.167 59.5,332.833 59.5,339.5C 52.8333,339.5 46.1667,339.5 39.5,339.5C 39.5,332.833 39.5,326.167 39.5,319.5 Z"/></g>
<g><path style="opacity:1" fill="#eff0ef" d="M 59.5,319.5 C 66.1667,319.5 72.8333,319.5 79.5,319.5C 79.5,326.167 79.5,332.833 79.5,339.5C 72.8333,339.5 66.1667,339.5 59.5,339.5C 59.5,332.833 59.5,326.167 59.5,319.5 Z"/></g>
<g><path style="opacity:1" fill="#eff0ef" d="M -0.5,339.5 C 6.16667,339.5 12.8333,339.5 19.5,339.5C 19.5,346.167 19.5,352.833 19.5,359.5C 12.8333,359.5 6.16667,359.5 -0.5,359.5C -0.5,352.833 -0.5,346.167 -0.5,339.5 Z"/></g>
<g><path style="opacity:1" fill="#fefffe" d="M 19.5,339.5 C 26.1667,339.5 32.8333,339.5 39.5,339.5C 39.5,346.167 39.5,352.833 39.5,359.5C 32.8333,359.5 26.1667,359.5 19.5,359.5C 19.5,352.833 19.5,346.167 19.5,339.5 Z"/></g>
<g><path style="opacity:1" fill="#eff0ef" d="M 39.5,339.5 C 46.1667,339.5 52.8333,339.5 59.5,339.5C 59.5,346.167 59.5,352.833 59.5,359.5C 52.8333,359.5 46.1667,359.5 39.5,359.5C 39.5,352.833 39.5,346.167 39.5,339.5 Z"/></g>
<g><path style="opacity:1" fill="#fefffe" d="M 59.5,339.5 C 66.1667,339.5 72.8333,339.5 79.5,339.5C 79.5,346.167 79.5,352.833 79.5,359.5C 72.8333,359.5 66.1667,359.5 59.5,359.5C 59.5,352.833 59.5,346.167 59.5,339.5 Z"/></g>
<g><path style="opacity:1" fill="#fefffe" d="M -0.5,359.5 C 6.16667,359.5 12.8333,359.5 19.5,359.5C 19.5,366.167 19.5,372.833 19.5,379.5C 12.8333,379.5 6.16667,379.5 -0.5,379.5C -0.5,372.833 -0.5,366.167 -0.5,359.5 Z"/></g>
<g><path style="opacity:1" fill="#eff0ef" d="M 19.5,359.5 C 26.1667,359.5 32.8333,359.5 39.5,359.5C 39.5,366.167 39.5,372.833 39.5,379.5C 32.8333,379.5 26.1667,379.5 19.5,379.5C 19.5,372.833 19.5,366.167 19.5,359.5 Z"/></g>
<g><path style="opacity:1" fill="#fefffe" d="M 39.5,359.5 C 46.1667,359.5 52.8333,359.5 59.5,359.5C 59.5,366.167 59.5,372.833 59.5,379.5C 52.8333,379.5 46.1667,379.5 39.5,379.5C 39.5,372.833 39.5,366.167 39.5,359.5 Z"/></g>
<g><path style="opacity:1" fill="#eff0ef" d="M 59.5,359.5 C 66.1667,359.5 72.8333,359.5 79.5,359.5C 79.5,366.167 79.5,372.833 79.5,379.5C 72.8333,379.5 66.1667,379.5 59.5,379.5C 59.5,372.833 59.5,366.167 59.5,359.5 Z"/></g>
<g><path style="opacity:1" fill="#1f2c5e" d="M 334.5,357.5 C 347.747,372.643 363.747,384.143 382.5,392C 407.513,402.727 433.18,411.56 459.5,418.5C 472.565,422.769 485.899,426.435 499.5,429.5C 505.509,431.921 511.843,433.587 518.5,434.5C 545.93,442.196 573.263,450.529 600.5,459.5C 600.833,459.5 601.167,459.5 601.5,459.5C 621.601,467.152 641.601,475.318 661.5,484C 689.006,497.198 714.673,513.198 738.5,532C 747.373,539.372 755.373,547.539 762.5,556.5C 685.983,588.597 609.65,620.93 533.5,653.5C 490.152,638.232 446.152,625.232 401.5,614.5C 379.31,528.919 356.977,443.253 334.5,357.5 Z"/></g>
<g><path style="opacity:1" fill="#eff0ef" d="M -0.5,379.5 C 6.16667,379.5 12.8333,379.5 19.5,379.5C 19.5,386.167 19.5,392.833 19.5,399.5C 12.8333,399.5 6.16667,399.5 -0.5,399.5C -0.5,392.833 -0.5,386.167 -0.5,379.5 Z"/></g>
<g><path style="opacity:1" fill="#fefffe" d="M 19.5,379.5 C 26.1667,379.5 32.8333,379.5 39.5,379.5C 39.5,386.167 39.5,392.833 39.5,399.5C 32.8333,399.5 26.1667,399.5 19.5,399.5C 19.5,392.833 19.5,386.167 19.5,379.5 Z"/></g>
<g><path style="opacity:1" fill="#eff0ef" d="M 39.5,379.5 C 46.1667,379.5 52.8333,379.5 59.5,379.5C 59.5,386.167 59.5,392.833 59.5,399.5C 52.8333,399.5 46.1667,399.5 39.5,399.5C 39.5,392.833 39.5,386.167 39.5,379.5 Z"/></g>
<g><path style="opacity:1" fill="#fefffe" d="M 59.5,379.5 C 66.1667,379.5 72.8333,379.5 79.5,379.5C 79.5,386.167 79.5,392.833 79.5,399.5C 72.8333,399.5 66.1667,399.5 59.5,399.5C 59.5,392.833 59.5,386.167 59.5,379.5 Z"/></g>
<g><path style="opacity:1" fill="#fefffe" d="M -0.5,399.5 C 6.16667,399.5 12.8333,399.5 19.5,399.5C 19.5,406.167 19.5,412.833 19.5,419.5C 12.8333,419.5 6.16667,419.5 -0.5,419.5C -0.5,412.833 -0.5,406.167 -0.5,399.5 Z"/></g>
<g><path style="opacity:1" fill="#eff0ef" d="M 19.5,399.5 C 26.1667,399.5 32.8333,399.5 39.5,399.5C 39.5,406.167 39.5,412.833 39.5,419.5C 32.8333,419.5 26.1667,419.5 19.5,419.5C 19.5,412.833 19.5,406.167 19.5,399.5 Z"/></g>
<g><path style="opacity:1" fill="#fefffe" d="M 39.5,399.5 C 46.1667,399.5 52.8333,399.5 59.5,399.5C 59.5,406.167 59.5,412.833 59.5,419.5C 52.8333,419.5 46.1667,419.5 39.5,419.5C 39.5,412.833 39.5,406.167 39.5,399.5 Z"/></g>
<g><path style="opacity:1" fill="#eff0ef" d="M 59.5,399.5 C 66.1667,399.5 72.8333,399.5 79.5,399.5C 79.5,406.167 79.5,412.833 79.5,419.5C 72.8333,419.5 66.1667,419.5 59.5,419.5C 59.5,412.833 59.5,406.167 59.5,399.5 Z"/></g>
<g><path style="opacity:1" fill="#efeff0" d="M 118.5,354.5 C 120.556,379.851 125.223,404.851 132.5,429.5C 133.833,432.833 135.167,436.167 136.5,439.5C 130.833,439.5 125.167,439.5 119.5,439.5C 119.5,432.833 119.5,426.167 119.5,419.5C 112.833,419.5 106.167,419.5 99.5,419.5C 99.5,412.833 99.5,406.167 99.5,399.5C 106.167,399.5 112.833,399.5 119.5,399.5C 119.5,392.833 119.5,386.167 119.5,379.5C 112.833,379.5 106.167,379.5 99.5,379.5C 99.5,372.833 99.5,366.167 99.5,359.5C 105.833,359.5 112.167,359.5 118.5,359.5C 118.5,357.833 118.5,356.167 118.5,354.5 Z"/></g>
<g><path style="opacity:1" fill="#edeeee" d="M 499.5,429.5 C 485.899,426.435 472.565,422.769 459.5,418.5C 459.5,412.167 459.5,405.833 459.5,399.5C 466.167,399.5 472.833,399.5 479.5,399.5C 479.5,406.167 479.5,412.833 479.5,419.5C 486.167,419.5 492.833,419.5 499.5,419.5C 499.5,422.833 499.5,426.167 499.5,429.5 Z"/></g>
<g><path style="opacity:1" fill="#eff0ef" d="M -0.5,419.5 C 6.16667,419.5 12.8333,419.5 19.5,419.5C 19.5,426.167 19.5,432.833 19.5,439.5C 12.8333,439.5 6.16667,439.5 -0.5,439.5C -0.5,432.833 -0.5,426.167 -0.5,419.5 Z"/></g>
<g><path style="opacity:1" fill="#fefffe" d="M 19.5,419.5 C 26.1667,419.5 32.8333,419.5 39.5,419.5C 39.5,426.167 39.5,432.833 39.5,439.5C 32.8333,439.5 26.1667,439.5 19.5,439.5C 19.5,432.833 19.5,426.167 19.5,419.5 Z"/></g>
<g><path style="opacity:1" fill="#eff0ef" d="M 39.5,419.5 C 46.1667,419.5 52.8333,419.5 59.5,419.5C 59.5,426.167 59.5,432.833 59.5,439.5C 52.8333,439.5 46.1667,439.5 39.5,439.5C 39.5,432.833 39.5,426.167 39.5,419.5 Z"/></g>
<g><path style="opacity:1" fill="#fefffe" d="M 59.5,419.5 C 66.1667,419.5 72.8333,419.5 79.5,419.5C 79.5,426.167 79.5,432.833 79.5,439.5C 72.8333,439.5 66.1667,439.5 59.5,439.5C 59.5,432.833 59.5,426.167 59.5,419.5 Z"/></g>
<g><path style="opacity:1" fill="#efeff0" d="M 600.5,459.5 C 573.263,450.529 545.93,442.196 518.5,434.5C 519.487,429.695 519.821,424.695 519.5,419.5C 526.167,419.5 532.833,419.5 539.5,419.5C 539.5,426.167 539.5,432.833 539.5,439.5C 546.167,439.5 552.833,439.5 559.5,439.5C 559.5,432.833 559.5,426.167 559.5,419.5C 566.167,419.5 572.833,419.5 579.5,419.5C 579.5,426.167 579.5,432.833 579.5,439.5C 586.167,439.5 592.833,439.5 599.5,439.5C 599.207,446.255 599.54,452.922 600.5,459.5 Z"/></g>
<g><path style="opacity:1" fill="#fefffe" d="M -0.5,439.5 C 6.16667,439.5 12.8333,439.5 19.5,439.5C 19.5,446.167 19.5,452.833 19.5,459.5C 12.8333,459.5 6.16667,459.5 -0.5,459.5C -0.5,452.833 -0.5,446.167 -0.5,439.5 Z"/></g>
<g><path style="opacity:1" fill="#eff0ef" d="M 19.5,439.5 C 26.1667,439.5 32.8333,439.5 39.5,439.5C 39.5,446.167 39.5,452.833 39.5,459.5C 32.8333,459.5 26.1667,459.5 19.5,459.5C 19.5,452.833 19.5,446.167 19.5,439.5 Z"/></g>
<g><path style="opacity:1" fill="#fefffe" d="M 39.5,439.5 C 46.1667,439.5 52.8333,439.5 59.5,439.5C 59.5,446.167 59.5,452.833 59.5,459.5C 52.8333,459.5 46.1667,459.5 39.5,459.5C 39.5,452.833 39.5,446.167 39.5,439.5 Z"/></g>
<g><path style="opacity:1" fill="#eff0ef" d="M 59.5,439.5 C 66.1667,439.5 72.8333,439.5 79.5,439.5C 79.5,446.167 79.5,452.833 79.5,459.5C 72.8333,459.5 66.1667,459.5 59.5,459.5C 59.5,452.833 59.5,446.167 59.5,439.5 Z"/></g>
<g><path style="opacity:1" fill="#eff0ef" d="M -0.5,459.5 C 6.16667,459.5 12.8333,459.5 19.5,459.5C 19.5,466.167 19.5,472.833 19.5,479.5C 12.8333,479.5 6.16667,479.5 -0.5,479.5C -0.5,472.833 -0.5,466.167 -0.5,459.5 Z"/></g>
<g><path style="opacity:1" fill="#fefffe" d="M 19.5,459.5 C 26.1667,459.5 32.8333,459.5 39.5,459.5C 39.5,466.167 39.5,472.833 39.5,479.5C 32.8333,479.5 26.1667,479.5 19.5,479.5C 19.5,472.833 19.5,466.167 19.5,459.5 Z"/></g>
<g><path style="opacity:1" fill="#eff0ef" d="M 39.5,459.5 C 46.1667,459.5 52.8333,459.5 59.5,459.5C 59.5,466.167 59.5,472.833 59.5,479.5C 52.8333,479.5 46.1667,479.5 39.5,479.5C 39.5,472.833 39.5,466.167 39.5,459.5 Z"/></g>
<g><path style="opacity:1" fill="#fefffe" d="M 59.5,459.5 C 66.1667,459.5 72.8333,459.5 79.5,459.5C 79.5,466.167 79.5,472.833 79.5,479.5C 72.8333,479.5 66.1667,479.5 59.5,479.5C 59.5,472.833 59.5,466.167 59.5,459.5 Z"/></g>
<g><path style="opacity:1" fill="#fefffe" d="M -0.5,479.5 C 6.16667,479.5 12.8333,479.5 19.5,479.5C 19.5,486.167 19.5,492.833 19.5,499.5C 12.8333,499.5 6.16667,499.5 -0.5,499.5C -0.5,492.833 -0.5,486.167 -0.5,479.5 Z"/></g>
<g><path style="opacity:1" fill="#eff0ef" d="M 19.5,479.5 C 26.1667,479.5 32.8333,479.5 39.5,479.5C 39.5,486.167 39.5,492.833 39.5,499.5C 32.8333,499.5 26.1667,499.5 19.5,499.5C 19.5,492.833 19.5,486.167 19.5,479.5 Z"/></g>
<g><path style="opacity:1" fill="#fefffe" d="M 39.5,479.5 C 46.1667,479.5 52.8333,479.5 59.5,479.5C 59.5,486.167 59.5,492.833 59.5,499.5C 52.8333,499.5 46.1667,499.5 39.5,499.5C 39.5,492.833 39.5,486.167 39.5,479.5 Z"/></g>
<g><path style="opacity:1" fill="#eff0ef" d="M 59.5,479.5 C 66.1667,479.5 72.8333,479.5 79.5,479.5C 79.5,486.167 79.5,492.833 79.5,499.5C 72.8333,499.5 66.1667,499.5 59.5,499.5C 59.5,492.833 59.5,486.167 59.5,479.5 Z"/></g>
<g><path style="opacity:1" fill="#eff0ef" d="M -0.5,499.5 C 6.16667,499.5 12.8333,499.5 19.5,499.5C 19.5,506.167 19.5,512.833 19.5,519.5C 12.8333,519.5 6.16667,519.5 -0.5,519.5C -0.5,512.833 -0.5,506.167 -0.5,499.5 Z"/></g>
<g><path style="opacity:1" fill="#fefffe" d="M 19.5,499.5 C 26.1667,499.5 32.8333,499.5 39.5,499.5C 39.5,506.167 39.5,512.833 39.5,519.5C 32.8333,519.5 26.1667,519.5 19.5,519.5C 19.5,512.833 19.5,506.167 19.5,499.5 Z"/></g>
<g><path style="opacity:1" fill="#eff0ef" d="M 39.5,499.5 C 46.1667,499.5 52.8333,499.5 59.5,499.5C 59.5,506.167 59.5,512.833 59.5,519.5C 52.8333,519.5 46.1667,519.5 39.5,519.5C 39.5,512.833 39.5,506.167 39.5,499.5 Z"/></g>
<g><path style="opacity:1" fill="#fefffe" d="M 59.5,499.5 C 66.1667,499.5 72.8333,499.5 79.5,499.5C 79.5,506.167 79.5,512.833 79.5,519.5C 72.8333,519.5 66.1667,519.5 59.5,519.5C 59.5,512.833 59.5,506.167 59.5,499.5 Z"/></g>
<g><path style="opacity:1" fill="#fefffe" d="M -0.5,519.5 C 6.16667,519.5 12.8333,519.5 19.5,519.5C 19.5,526.167 19.5,532.833 19.5,539.5C 12.8333,539.5 6.16667,539.5 -0.5,539.5C -0.5,532.833 -0.5,526.167 -0.5,519.5 Z"/></g>
<g><path style="opacity:1" fill="#eff0ef" d="M 19.5,519.5 C 26.1667,519.5 32.8333,519.5 39.5,519.5C 39.5,526.167 39.5,532.833 39.5,539.5C 32.8333,539.5 26.1667,539.5 19.5,539.5C 19.5,532.833 19.5,526.167 19.5,519.5 Z"/></g>
<g><path style="opacity:1" fill="#fefffe" d="M 39.5,519.5 C 46.1667,519.5 52.8333,519.5 59.5,519.5C 59.5,526.167 59.5,532.833 59.5,539.5C 52.8333,539.5 46.1667,539.5 39.5,539.5C 39.5,532.833 39.5,526.167 39.5,519.5 Z"/></g>
<g><path style="opacity:1" fill="#eff0ef" d="M 59.5,519.5 C 66.1667,519.5 72.8333,519.5 79.5,519.5C 79.5,526.167 79.5,532.833 79.5,539.5C 72.8333,539.5 66.1667,539.5 59.5,539.5C 59.5,532.833 59.5,526.167 59.5,519.5 Z"/></g>
<g><path style="opacity:1" fill="#eff0ef" d="M -0.5,539.5 C 6.16667,539.5 12.8333,539.5 19.5,539.5C 19.5,546.167 19.5,552.833 19.5,559.5C 12.8333,559.5 6.16667,559.5 -0.5,559.5C -0.5,552.833 -0.5,546.167 -0.5,539.5 Z"/></g>
<g><path style="opacity:1" fill="#fefffe" d="M 19.5,539.5 C 26.1667,539.5 32.8333,539.5 39.5,539.5C 39.5,546.167 39.5,552.833 39.5,559.5C 32.8333,559.5 26.1667,559.5 19.5,559.5C 19.5,552.833 19.5,546.167 19.5,539.5 Z"/></g>
<g><path style="opacity:1" fill="#eff0ef" d="M 39.5,539.5 C 46.1667,539.5 52.8333,539.5 59.5,539.5C 59.5,546.167 59.5,552.833 59.5,559.5C 52.8333,559.5 46.1667,559.5 39.5,559.5C 39.5,552.833 39.5,546.167 39.5,539.5 Z"/></g>
<g><path style="opacity:1" fill="#fefffe" d="M 59.5,539.5 C 66.1667,539.5 72.8333,539.5 79.5,539.5C 79.5,546.167 79.5,552.833 79.5,559.5C 72.8333,559.5 66.1667,559.5 59.5,559.5C 59.5,552.833 59.5,546.167 59.5,539.5 Z"/></g>
<g><path style="opacity:1" fill="#015489" d="M 762.5,556.5 C 766.845,560.847 770.845,565.514 774.5,570.5C 721.212,634.96 667.712,699.293 614,763.5C 613.536,762.906 613.369,762.239 613.5,761.5C 620.383,730.822 612.383,704.989 589.5,684C 572.116,671.475 553.449,661.308 533.5,653.5C 609.65,620.93 685.983,588.597 762.5,556.5 Z"/></g>
<g><path style="opacity:1" fill="#fefffe" d="M -0.5,559.5 C 6.16667,559.5 12.8333,559.5 19.5,559.5C 19.5,566.167 19.5,572.833 19.5,579.5C 12.8333,579.5 6.16667,579.5 -0.5,579.5C -0.5,572.833 -0.5,566.167 -0.5,559.5 Z"/></g>
<g><path style="opacity:1" fill="#eff0ef" d="M 19.5,559.5 C 26.1667,559.5 32.8333,559.5 39.5,559.5C 39.5,566.167 39.5,572.833 39.5,579.5C 32.8333,579.5 26.1667,579.5 19.5,579.5C 19.5,572.833 19.5,566.167 19.5,559.5 Z"/></g>
<g><path style="opacity:1" fill="#fefffe" d="M 39.5,559.5 C 46.1667,559.5 52.8333,559.5 59.5,559.5C 59.5,566.167 59.5,572.833 59.5,579.5C 52.8333,579.5 46.1667,579.5 39.5,579.5C 39.5,572.833 39.5,566.167 39.5,559.5 Z"/></g>
<g><path style="opacity:1" fill="#eff0ef" d="M 59.5,559.5 C 66.1667,559.5 72.8333,559.5 79.5,559.5C 79.5,566.167 79.5,572.833 79.5,579.5C 72.8333,579.5 66.1667,579.5 59.5,579.5C 59.5,572.833 59.5,566.167 59.5,559.5 Z"/></g>
<g><path style="opacity:1" fill="#01aac3" d="M 774.5,570.5 C 777.075,573.319 779.408,576.319 781.5,579.5C 807.87,622.469 820.536,669.302 819.5,720C 820.518,778.772 806.018,833.272 776,883.5C 760.14,906.861 741.307,927.528 719.5,945.5C 719.586,944.504 719.252,943.671 718.5,943C 670.313,901.403 622.313,859.569 574.5,817.5C 573.378,816.37 572.044,815.703 570.5,815.5C 592.477,803.525 606.811,785.525 613.5,761.5C 613.369,762.239 613.536,762.906 614,763.5C 667.712,699.293 721.212,634.96 774.5,570.5 Z"/></g>
<g><path style="opacity:1" fill="#eff0ef" d="M -0.5,579.5 C 6.16667,579.5 12.8333,579.5 19.5,579.5C 19.5,586.167 19.5,592.833 19.5,599.5C 12.8333,599.5 6.16667,599.5 -0.5,599.5C -0.5,592.833 -0.5,586.167 -0.5,579.5 Z"/></g>
<g><path style="opacity:1" fill="#fefffe" d="M 19.5,579.5 C 26.1667,579.5 32.8333,579.5 39.5,579.5C 39.5,586.167 39.5,592.833 39.5,599.5C 32.8333,599.5 26.1667,599.5 19.5,599.5C 19.5,592.833 19.5,586.167 19.5,579.5 Z"/></g>
<g><path style="opacity:1" fill="#eff0ef" d="M 39.5,579.5 C 46.1667,579.5 52.8333,579.5 59.5,579.5C 59.5,586.167 59.5,592.833 59.5,599.5C 52.8333,599.5 46.1667,599.5 39.5,599.5C 39.5,592.833 39.5,586.167 39.5,579.5 Z"/></g>
<g><path style="opacity:1" fill="#fefffe" d="M 59.5,579.5 C 66.1667,579.5 72.8333,579.5 79.5,579.5C 79.5,586.167 79.5,592.833 79.5,599.5C 72.8333,599.5 66.1667,599.5 59.5,599.5C 59.5,592.833 59.5,586.167 59.5,579.5 Z"/></g>
<g><path style="opacity:1" fill="#fefffe" d="M -0.5,599.5 C 6.16667,599.5 12.8333,599.5 19.5,599.5C 19.5,606.167 19.5,612.833 19.5,619.5C 12.8333,619.5 6.16667,619.5 -0.5,619.5C -0.5,612.833 -0.5,606.167 -0.5,599.5 Z"/></g>
<g><path style="opacity:1" fill="#eff0ef" d="M 19.5,599.5 C 26.1667,599.5 32.8333,599.5 39.5,599.5C 39.5,606.167 39.5,612.833 39.5,619.5C 32.8333,619.5 26.1667,619.5 19.5,619.5C 19.5,612.833 19.5,606.167 19.5,599.5 Z"/></g>
<g><path style="opacity:1" fill="#fefffe" d="M 39.5,599.5 C 46.1667,599.5 52.8333,599.5 59.5,599.5C 59.5,606.167 59.5,612.833 59.5,619.5C 52.8333,619.5 46.1667,619.5 39.5,619.5C 39.5,612.833 39.5,606.167 39.5,599.5 Z"/></g>
<g><path style="opacity:1" fill="#eff0ef" d="M 59.5,599.5 C 66.1667,599.5 72.8333,599.5 79.5,599.5C 79.5,606.167 79.5,612.833 79.5,619.5C 72.8333,619.5 66.1667,619.5 59.5,619.5C 59.5,612.833 59.5,606.167 59.5,599.5 Z"/></g>
<g><path style="opacity:1" fill="#eff0ef" d="M -0.5,619.5 C 6.16667,619.5 12.8333,619.5 19.5,619.5C 19.5,626.167 19.5,632.833 19.5,639.5C 12.8333,639.5 6.16667,639.5 -0.5,639.5C -0.5,632.833 -0.5,626.167 -0.5,619.5 Z"/></g>
<g><path style="opacity:1" fill="#fefffe" d="M 19.5,619.5 C 26.1667,619.5 32.8333,619.5 39.5,619.5C 39.5,626.167 39.5,632.833 39.5,639.5C 32.8333,639.5 26.1667,639.5 19.5,639.5C 19.5,632.833 19.5,626.167 19.5,619.5 Z"/></g>
<g><path style="opacity:1" fill="#eff0ef" d="M 39.5,619.5 C 46.1667,619.5 52.8333,619.5 59.5,619.5C 59.5,626.167 59.5,632.833 59.5,639.5C 52.8333,639.5 46.1667,639.5 39.5,639.5C 39.5,632.833 39.5,626.167 39.5,619.5 Z"/></g>
<g><path style="opacity:1" fill="#fefffe" d="M 59.5,619.5 C 66.1667,619.5 72.8333,619.5 79.5,619.5C 79.5,626.167 79.5,632.833 79.5,639.5C 72.8333,639.5 66.1667,639.5 59.5,639.5C 59.5,632.833 59.5,626.167 59.5,619.5 Z"/></g>
<g><path style="opacity:1" fill="#fefffe" d="M -0.5,639.5 C 6.16667,639.5 12.8333,639.5 19.5,639.5C 19.5,646.167 19.5,652.833 19.5,659.5C 12.8333,659.5 6.16667,659.5 -0.5,659.5C -0.5,652.833 -0.5,646.167 -0.5,639.5 Z"/></g>
<g><path style="opacity:1" fill="#eff0ef" d="M 19.5,639.5 C 26.1667,639.5 32.8333,639.5 39.5,639.5C 39.5,646.167 39.5,652.833 39.5,659.5C 32.8333,659.5 26.1667,659.5 19.5,659.5C 19.5,652.833 19.5,646.167 19.5,639.5 Z"/></g>
<g><path style="opacity:1" fill="#fefffe" d="M 39.5,639.5 C 46.1667,639.5 52.8333,639.5 59.5,639.5C 59.5,646.167 59.5,652.833 59.5,659.5C 52.8333,659.5 46.1667,659.5 39.5,659.5C 39.5,652.833 39.5,646.167 39.5,639.5 Z"/></g>
<g><path style="opacity:1" fill="#eff0ef" d="M 59.5,639.5 C 66.1667,639.5 72.8333,639.5 79.5,639.5C 79.5,646.167 79.5,652.833 79.5,659.5C 72.8333,659.5 66.1667,659.5 59.5,659.5C 59.5,652.833 59.5,646.167 59.5,639.5 Z"/></g>
<g><path style="opacity:1" fill="#eff0ef" d="M -0.5,659.5 C 6.16667,659.5 12.8333,659.5 19.5,659.5C 19.5,666.167 19.5,672.833 19.5,679.5C 12.8333,679.5 6.16667,679.5 -0.5,679.5C -0.5,672.833 -0.5,666.167 -0.5,659.5 Z"/></g>
<g><path style="opacity:1" fill="#fefffe" d="M 19.5,659.5 C 26.1667,659.5 32.8333,659.5 39.5,659.5C 39.5,666.167 39.5,672.833 39.5,679.5C 32.8333,679.5 26.1667,679.5 19.5,679.5C 19.5,672.833 19.5,666.167 19.5,659.5 Z"/></g>
<g><path style="opacity:1" fill="#eff0ef" d="M 39.5,659.5 C 46.1667,659.5 52.8333,659.5 59.5,659.5C 59.5,666.167 59.5,672.833 59.5,679.5C 52.8333,679.5 46.1667,679.5 39.5,679.5C 39.5,672.833 39.5,666.167 39.5,659.5 Z"/></g>
<g><path style="opacity:1" fill="#fefffe" d="M 59.5,659.5 C 66.1667,659.5 72.8333,659.5 79.5,659.5C 79.5,666.167 79.5,672.833 79.5,679.5C 72.8333,679.5 66.1667,679.5 59.5,679.5C 59.5,672.833 59.5,666.167 59.5,659.5 Z"/></g>
<g><path style="opacity:1" fill="#fefffe" d="M -0.5,679.5 C 6.16667,679.5 12.8333,679.5 19.5,679.5C 19.5,686.167 19.5,692.833 19.5,699.5C 12.8333,699.5 6.16667,699.5 -0.5,699.5C -0.5,692.833 -0.5,686.167 -0.5,679.5 Z"/></g>
<g><path style="opacity:1" fill="#eff0ef" d="M 19.5,679.5 C 26.1667,679.5 32.8333,679.5 39.5,679.5C 39.5,686.167 39.5,692.833 39.5,699.5C 32.8333,699.5 26.1667,699.5 19.5,699.5C 19.5,692.833 19.5,686.167 19.5,679.5 Z"/></g>
<g><path style="opacity:1" fill="#fefffe" d="M 39.5,679.5 C 46.1667,679.5 52.8333,679.5 59.5,679.5C 59.5,686.167 59.5,692.833 59.5,699.5C 52.8333,699.5 46.1667,699.5 39.5,699.5C 39.5,692.833 39.5,686.167 39.5,679.5 Z"/></g>
<g><path style="opacity:1" fill="#eff0ef" d="M 59.5,679.5 C 66.1667,679.5 72.8333,679.5 79.5,679.5C 79.5,686.167 79.5,692.833 79.5,699.5C 72.8333,699.5 66.1667,699.5 59.5,699.5C 59.5,692.833 59.5,686.167 59.5,679.5 Z"/></g>
<g><path style="opacity:1" fill="#eff0ef" d="M -0.5,699.5 C 6.16667,699.5 12.8333,699.5 19.5,699.5C 19.5,706.167 19.5,712.833 19.5,719.5C 12.8333,719.5 6.16667,719.5 -0.5,719.5C -0.5,712.833 -0.5,706.167 -0.5,699.5 Z"/></g>
<g><path style="opacity:1" fill="#fefffe" d="M 19.5,699.5 C 26.1667,699.5 32.8333,699.5 39.5,699.5C 39.5,706.167 39.5,712.833 39.5,719.5C 32.8333,719.5 26.1667,719.5 19.5,719.5C 19.5,712.833 19.5,706.167 19.5,699.5 Z"/></g>
<g><path style="opacity:1" fill="#eff0ef" d="M 39.5,699.5 C 46.1667,699.5 52.8333,699.5 59.5,699.5C 59.5,706.167 59.5,712.833 59.5,719.5C 52.8333,719.5 46.1667,719.5 39.5,719.5C 39.5,712.833 39.5,706.167 39.5,699.5 Z"/></g>
<g><path style="opacity:1" fill="#fefffe" d="M 59.5,699.5 C 66.1667,699.5 72.8333,699.5 79.5,699.5C 79.5,706.167 79.5,712.833 79.5,719.5C 72.8333,719.5 66.1667,719.5 59.5,719.5C 59.5,712.833 59.5,706.167 59.5,699.5 Z"/></g>
<g><path style="opacity:1" fill="#fefffe" d="M -0.5,719.5 C 6.16667,719.5 12.8333,719.5 19.5,719.5C 19.5,726.167 19.5,732.833 19.5,739.5C 12.8333,739.5 6.16667,739.5 -0.5,739.5C -0.5,732.833 -0.5,726.167 -0.5,719.5 Z"/></g>
<g><path style="opacity:1" fill="#eff0ef" d="M 19.5,719.5 C 26.1667,719.5 32.8333,719.5 39.5,719.5C 39.5,726.167 39.5,732.833 39.5,739.5C 32.8333,739.5 26.1667,739.5 19.5,739.5C 19.5,732.833 19.5,726.167 19.5,719.5 Z"/></g>
<g><path style="opacity:1" fill="#fefffe" d="M 39.5,719.5 C 46.1667,719.5 52.8333,719.5 59.5,719.5C 59.5,726.167 59.5,732.833 59.5,739.5C 52.8333,739.5 46.1667,739.5 39.5,739.5C 39.5,732.833 39.5,726.167 39.5,719.5 Z"/></g>
<g><path style="opacity:1" fill="#eff0ef" d="M 59.5,719.5 C 66.1667,719.5 72.8333,719.5 79.5,719.5C 79.5,726.167 79.5,732.833 79.5,739.5C 72.8333,739.5 66.1667,739.5 59.5,739.5C 59.5,732.833 59.5,726.167 59.5,719.5 Z"/></g>
<g><path style="opacity:1" fill="#1f2c5e" d="M 202.5,719.5 C 223.164,806.157 243.831,892.824 264.5,979.5C 196.315,953.681 135.481,916.347 82,867.5C 81.6848,866.092 82.0181,864.759 83,863.5C 95.3189,849.504 107.152,835.171 118.5,820.5C 146.4,786.118 174.4,752.452 202.5,719.5 Z"/></g>
<g><path style="opacity:1" fill="#f0f0f1" d="M 279.5,774.5 C 252.571,757.875 226.905,739.542 202.5,719.5C 174.4,752.452 146.4,786.118 118.5,820.5C 112.355,819.51 106.022,819.177 99.5,819.5C 99.5,812.833 99.5,806.167 99.5,799.5C 106.167,799.5 112.833,799.5 119.5,799.5C 119.5,792.833 119.5,786.167 119.5,779.5C 126.167,779.5 132.833,779.5 139.5,779.5C 139.5,772.833 139.5,766.167 139.5,759.5C 146.167,759.5 152.833,759.5 159.5,759.5C 159.5,752.833 159.5,746.167 159.5,739.5C 166.167,739.5 172.833,739.5 179.5,739.5C 179.5,732.833 179.5,726.167 179.5,719.5C 186.167,719.5 192.833,719.5 199.5,719.5C 199.5,712.833 199.5,706.167 199.5,699.5C 206.167,699.5 212.833,699.5 219.5,699.5C 219.5,706.167 219.5,712.833 219.5,719.5C 226.167,719.5 232.833,719.5 239.5,719.5C 239.5,726.167 239.5,732.833 239.5,739.5C 246.167,739.5 252.833,739.5 259.5,739.5C 259.5,746.167 259.5,752.833 259.5,759.5C 266.167,759.5 272.833,759.5 279.5,759.5C 279.5,764.5 279.5,769.5 279.5,774.5 Z"/></g>
<g><path style="opacity:1" fill="#005489" d="M 202.5,719.5 C 226.905,739.542 252.571,757.875 279.5,774.5C 335.26,809.974 396.26,829.641 462.5,833.5C 396.864,882.652 330.864,931.319 264.5,979.5C 243.831,892.824 223.164,806.157 202.5,719.5 Z"/></g>
<g><path style="opacity:1" fill="#eff0ef" d="M -0.5,739.5 C 6.16667,739.5 12.8333,739.5 19.5,739.5C 19.5,746.167 19.5,752.833 19.5,759.5C 12.8333,759.5 6.16667,759.5 -0.5,759.5C -0.5,752.833 -0.5,746.167 -0.5,739.5 Z"/></g>
<g><path style="opacity:1" fill="#fefffe" d="M 19.5,739.5 C 26.1667,739.5 32.8333,739.5 39.5,739.5C 39.5,746.167 39.5,752.833 39.5,759.5C 32.8333,759.5 26.1667,759.5 19.5,759.5C 19.5,752.833 19.5,746.167 19.5,739.5 Z"/></g>
<g><path style="opacity:1" fill="#eff0ef" d="M 39.5,739.5 C 46.1667,739.5 52.8333,739.5 59.5,739.5C 59.5,746.167 59.5,752.833 59.5,759.5C 52.8333,759.5 46.1667,759.5 39.5,759.5C 39.5,752.833 39.5,746.167 39.5,739.5 Z"/></g>
<g><path style="opacity:1" fill="#fefffe" d="M 59.5,739.5 C 66.1667,739.5 72.8333,739.5 79.5,739.5C 79.5,746.167 79.5,752.833 79.5,759.5C 72.8333,759.5 66.1667,759.5 59.5,759.5C 59.5,752.833 59.5,746.167 59.5,739.5 Z"/></g>
<g><path style="opacity:1" fill="#fefffe" d="M -0.5,759.5 C 6.16667,759.5 12.8333,759.5 19.5,759.5C 19.5,766.167 19.5,772.833 19.5,779.5C 12.8333,779.5 6.16667,779.5 -0.5,779.5C -0.5,772.833 -0.5,766.167 -0.5,759.5 Z"/></g>
<g><path style="opacity:1" fill="#eff0ef" d="M 19.5,759.5 C 26.1667,759.5 32.8333,759.5 39.5,759.5C 39.5,766.167 39.5,772.833 39.5,779.5C 32.8333,779.5 26.1667,779.5 19.5,779.5C 19.5,772.833 19.5,766.167 19.5,759.5 Z"/></g>
<g><path style="opacity:1" fill="#fefffe" d="M 39.5,759.5 C 46.1667,759.5 52.8333,759.5 59.5,759.5C 59.5,766.167 59.5,772.833 59.5,779.5C 52.8333,779.5 46.1667,779.5 39.5,779.5C 39.5,772.833 39.5,766.167 39.5,759.5 Z"/></g>
<g><path style="opacity:1" fill="#eff0ef" d="M 59.5,759.5 C 66.1667,759.5 72.8333,759.5 79.5,759.5C 79.5,766.167 79.5,772.833 79.5,779.5C 72.8333,779.5 66.1667,779.5 59.5,779.5C 59.5,772.833 59.5,766.167 59.5,759.5 Z"/></g>
<g><path style="opacity:1" fill="#eff0ef" d="M -0.5,779.5 C 6.16667,779.5 12.8333,779.5 19.5,779.5C 19.5,786.167 19.5,792.833 19.5,799.5C 12.8333,799.5 6.16667,799.5 -0.5,799.5C -0.5,792.833 -0.5,786.167 -0.5,779.5 Z"/></g>
<g><path style="opacity:1" fill="#fefffe" d="M 19.5,779.5 C 26.1667,779.5 32.8333,779.5 39.5,779.5C 39.5,786.167 39.5,792.833 39.5,799.5C 32.8333,799.5 26.1667,799.5 19.5,799.5C 19.5,792.833 19.5,786.167 19.5,779.5 Z"/></g>
<g><path style="opacity:1" fill="#eff0ef" d="M 39.5,779.5 C 46.1667,779.5 52.8333,779.5 59.5,779.5C 59.5,786.167 59.5,792.833 59.5,799.5C 52.8333,799.5 46.1667,799.5 39.5,799.5C 39.5,792.833 39.5,786.167 39.5,779.5 Z"/></g>
<g><path style="opacity:1" fill="#fefffe" d="M 59.5,779.5 C 66.1667,779.5 72.8333,779.5 79.5,779.5C 79.5,786.167 79.5,792.833 79.5,799.5C 72.8333,799.5 66.1667,799.5 59.5,799.5C 59.5,792.833 59.5,786.167 59.5,779.5 Z"/></g>
<g><path style="opacity:1" fill="#fefffe" d="M -0.5,799.5 C 6.16667,799.5 12.8333,799.5 19.5,799.5C 19.5,806.167 19.5,812.833 19.5,819.5C 12.8333,819.5 6.16667,819.5 -0.5,819.5C -0.5,812.833 -0.5,806.167 -0.5,799.5 Z"/></g>
<g><path style="opacity:1" fill="#eff0ef" d="M 19.5,799.5 C 26.1667,799.5 32.8333,799.5 39.5,799.5C 39.5,806.167 39.5,812.833 39.5,819.5C 32.8333,819.5 26.1667,819.5 19.5,819.5C 19.5,812.833 19.5,806.167 19.5,799.5 Z"/></g>
<g><path style="opacity:1" fill="#fefffe" d="M 39.5,799.5 C 46.1667,799.5 52.8333,799.5 59.5,799.5C 59.5,806.167 59.5,812.833 59.5,819.5C 52.8333,819.5 46.1667,819.5 39.5,819.5C 39.5,812.833 39.5,806.167 39.5,799.5 Z"/></g>
<g><path style="opacity:1" fill="#eff0ef" d="M 59.5,799.5 C 66.1667,799.5 72.8333,799.5 79.5,799.5C 79.5,806.167 79.5,812.833 79.5,819.5C 72.8333,819.5 66.1667,819.5 59.5,819.5C 59.5,812.833 59.5,806.167 59.5,799.5 Z"/></g>
<g><path style="opacity:1" fill="#018bbf" d="M 570.5,815.5 C 572.044,815.703 573.378,816.37 574.5,817.5C 622.313,859.569 670.313,901.403 718.5,943C 719.252,943.671 719.586,944.504 719.5,945.5C 671.09,981.687 616.757,1004.19 556.5,1013C 483.106,1023.26 410.439,1019.76 338.5,1002.5C 313.113,996.813 288.446,989.147 264.5,979.5C 330.864,931.319 396.864,882.652 462.5,833.5C 500.18,836.882 536.18,830.882 570.5,815.5 Z"/></g>
<g><path style="opacity:1" fill="#eff0ef" d="M -0.5,819.5 C 6.16667,819.5 12.8333,819.5 19.5,819.5C 19.5,826.167 19.5,832.833 19.5,839.5C 12.8333,839.5 6.16667,839.5 -0.5,839.5C -0.5,832.833 -0.5,826.167 -0.5,819.5 Z"/></g>
<g><path style="opacity:1" fill="#fefffe" d="M 19.5,819.5 C 26.1667,819.5 32.8333,819.5 39.5,819.5C 39.5,826.167 39.5,832.833 39.5,839.5C 32.8333,839.5 26.1667,839.5 19.5,839.5C 19.5,832.833 19.5,826.167 19.5,819.5 Z"/></g>
<g><path style="opacity:1" fill="#eff0ef" d="M 39.5,819.5 C 46.1667,819.5 52.8333,819.5 59.5,819.5C 59.5,826.167 59.5,832.833 59.5,839.5C 52.8333,839.5 46.1667,839.5 39.5,839.5C 39.5,832.833 39.5,826.167 39.5,819.5 Z"/></g>
<g><path style="opacity:1" fill="#fefffe" d="M 59.5,819.5 C 66.1667,819.5 72.8333,819.5 79.5,819.5C 79.5,826.167 79.5,832.833 79.5,839.5C 72.8333,839.5 66.1667,839.5 59.5,839.5C 59.5,832.833 59.5,826.167 59.5,819.5 Z"/></g>
<g><path style="opacity:1" fill="#fefffe" d="M -0.5,839.5 C 6.16667,839.5 12.8333,839.5 19.5,839.5C 19.5,846.167 19.5,852.833 19.5,859.5C 12.8333,859.5 6.16667,859.5 -0.5,859.5C -0.5,852.833 -0.5,846.167 -0.5,839.5 Z"/></g>
<g><path style="opacity:1" fill="#eff0ef" d="M 19.5,839.5 C 26.1667,839.5 32.8333,839.5 39.5,839.5C 39.5,846.167 39.5,852.833 39.5,859.5C 32.8333,859.5 26.1667,859.5 19.5,859.5C 19.5,852.833 19.5,846.167 19.5,839.5 Z"/></g>
<g><path style="opacity:1" fill="#fefffe" d="M 39.5,839.5 C 46.1667,839.5 52.8333,839.5 59.5,839.5C 59.5,846.167 59.5,852.833 59.5,859.5C 52.8333,859.5 46.1667,859.5 39.5,859.5C 39.5,852.833 39.5,846.167 39.5,839.5 Z"/></g>
<g><path style="opacity:1" fill="#eff0ef" d="M -0.5,859.5 C 6.16667,859.5 12.8333,859.5 19.5,859.5C 19.5,866.167 19.5,872.833 19.5,879.5C 12.8333,879.5 6.16667,879.5 -0.5,879.5C -0.5,872.833 -0.5,866.167 -0.5,859.5 Z"/></g>
<g><path style="opacity:1" fill="#fefffe" d="M 19.5,859.5 C 26.1667,859.5 32.8333,859.5 39.5,859.5C 39.5,866.167 39.5,872.833 39.5,879.5C 32.8333,879.5 26.1667,879.5 19.5,879.5C 19.5,872.833 19.5,866.167 19.5,859.5 Z"/></g>
<g><path style="opacity:1" fill="#eff0ef" d="M 39.5,859.5 C 46.1667,859.5 52.8333,859.5 59.5,859.5C 59.5,866.167 59.5,872.833 59.5,879.5C 52.8333,879.5 46.1667,879.5 39.5,879.5C 39.5,872.833 39.5,866.167 39.5,859.5 Z"/></g>
<g><path style="opacity:1" fill="#fefffe" d="M -0.5,879.5 C 6.16667,879.5 12.8333,879.5 19.5,879.5C 19.5,886.167 19.5,892.833 19.5,899.5C 12.8333,899.5 6.16667,899.5 -0.5,899.5C -0.5,892.833 -0.5,886.167 -0.5,879.5 Z"/></g>
<g><path style="opacity:1" fill="#eff0ef" d="M 19.5,879.5 C 26.1667,879.5 32.8333,879.5 39.5,879.5C 39.5,886.167 39.5,892.833 39.5,899.5C 32.8333,899.5 26.1667,899.5 19.5,899.5C 19.5,892.833 19.5,886.167 19.5,879.5 Z"/></g>
<g><path style="opacity:1" fill="#fefffe" d="M 39.5,879.5 C 46.1667,879.5 52.8333,879.5 59.5,879.5C 59.5,886.167 59.5,892.833 59.5,899.5C 52.8333,899.5 46.1667,899.5 39.5,899.5C 39.5,892.833 39.5,886.167 39.5,879.5 Z"/></g>
<g><path style="opacity:1" fill="#eff0ef" d="M -0.5,899.5 C 6.16667,899.5 12.8333,899.5 19.5,899.5C 19.5,906.167 19.5,912.833 19.5,919.5C 12.8333,919.5 6.16667,919.5 -0.5,919.5C -0.5,912.833 -0.5,906.167 -0.5,899.5 Z"/></g>
<g><path style="opacity:1" fill="#fefffe" d="M 19.5,899.5 C 26.1667,899.5 32.8333,899.5 39.5,899.5C 39.5,906.167 39.5,912.833 39.5,919.5C 32.8333,919.5 26.1667,919.5 19.5,919.5C 19.5,912.833 19.5,906.167 19.5,899.5 Z"/></g>
<g><path style="opacity:1" fill="#eff0ef" d="M 39.5,899.5 C 46.1667,899.5 52.8333,899.5 59.5,899.5C 59.5,906.167 59.5,912.833 59.5,919.5C 52.8333,919.5 46.1667,919.5 39.5,919.5C 39.5,912.833 39.5,906.167 39.5,899.5 Z"/></g>
<g><path style="opacity:1" fill="#fefffe" d="M -0.5,919.5 C 6.16667,919.5 12.8333,919.5 19.5,919.5C 19.5,926.167 19.5,932.833 19.5,939.5C 12.8333,939.5 6.16667,939.5 -0.5,939.5C -0.5,932.833 -0.5,926.167 -0.5,919.5 Z"/></g>
<g><path style="opacity:1" fill="#eff0ef" d="M 19.5,919.5 C 26.1667,919.5 32.8333,919.5 39.5,919.5C 39.5,926.167 39.5,932.833 39.5,939.5C 32.8333,939.5 26.1667,939.5 19.5,939.5C 19.5,932.833 19.5,926.167 19.5,919.5 Z"/></g>
<g><path style="opacity:1" fill="#fefffe" d="M 39.5,919.5 C 46.1667,919.5 52.8333,919.5 59.5,919.5C 59.5,926.167 59.5,932.833 59.5,939.5C 52.8333,939.5 46.1667,939.5 39.5,939.5C 39.5,932.833 39.5,926.167 39.5,919.5 Z"/></g>
<g><path style="opacity:1" fill="#f7f7f7" d="M 781.5,579.5 C 787.5,579.5 793.5,579.5 799.5,579.5C 799.5,586.167 799.5,592.833 799.5,599.5C 806.167,599.5 812.833,599.5 819.5,599.5C 819.5,606.167 819.5,612.833 819.5,619.5C 826.167,619.5 832.833,619.5 839.5,619.5C 839.5,626.167 839.5,632.833 839.5,639.5C 846.167,639.5 852.833,639.5 859.5,639.5C 859.5,646.167 859.5,652.833 859.5,659.5C 866.167,659.5 872.833,659.5 879.5,659.5C 879.5,666.167 879.5,672.833 879.5,679.5C 886.167,679.5 892.833,679.5 899.5,679.5C 899.5,806.167 899.5,932.833 899.5,1059.5C 726.167,1059.5 552.833,1059.5 379.5,1059.5C 379.5,1052.83 379.5,1046.17 379.5,1039.5C 372.833,1039.5 366.167,1039.5 359.5,1039.5C 359.5,1032.83 359.5,1026.17 359.5,1019.5C 352.833,1019.5 346.167,1019.5 339.5,1019.5C 339.786,1013.74 339.452,1008.07 338.5,1002.5C 410.439,1019.76 483.106,1023.26 556.5,1013C 616.757,1004.19 671.09,981.687 719.5,945.5C 741.307,927.528 760.14,906.861 776,883.5C 806.018,833.272 820.518,778.772 819.5,720C 820.536,669.302 807.87,622.469 781.5,579.5 Z"/></g>
<g><path style="opacity:1" fill="#eff0ef" d="M -0.5,939.5 C 6.16667,939.5 12.8333,939.5 19.5,939.5C 19.5,946.167 19.5,952.833 19.5,959.5C 12.8333,959.5 6.16667,959.5 -0.5,959.5C -0.5,952.833 -0.5,946.167 -0.5,939.5 Z"/></g>
<g><path style="opacity:1" fill="#fefffe" d="M 19.5,939.5 C 26.1667,939.5 32.8333,939.5 39.5,939.5C 39.5,946.167 39.5,952.833 39.5,959.5C 32.8333,959.5 26.1667,959.5 19.5,959.5C 19.5,952.833 19.5,946.167 19.5,939.5 Z"/></g>
<g><path style="opacity:1" fill="#eff0ef" d="M 39.5,939.5 C 46.1667,939.5 52.8333,939.5 59.5,939.5C 59.5,946.167 59.5,952.833 59.5,959.5C 52.8333,959.5 46.1667,959.5 39.5,959.5C 39.5,952.833 39.5,946.167 39.5,939.5 Z"/></g>
<g><path style="opacity:1" fill="#fefffe" d="M -0.5,959.5 C 6.16667,959.5 12.8333,959.5 19.5,959.5C 19.5,966.167 19.5,972.833 19.5,979.5C 12.8333,979.5 6.16667,979.5 -0.5,979.5C -0.5,972.833 -0.5,966.167 -0.5,959.5 Z"/></g>
<g><path style="opacity:1" fill="#eff0ef" d="M 19.5,959.5 C 26.1667,959.5 32.8333,959.5 39.5,959.5C 39.5,966.167 39.5,972.833 39.5,979.5C 32.8333,979.5 26.1667,979.5 19.5,979.5C 19.5,972.833 19.5,966.167 19.5,959.5 Z"/></g>
<g><path style="opacity:1" fill="#fefffe" d="M 39.5,959.5 C 46.1667,959.5 52.8333,959.5 59.5,959.5C 59.5,966.167 59.5,972.833 59.5,979.5C 52.8333,979.5 46.1667,979.5 39.5,979.5C 39.5,972.833 39.5,966.167 39.5,959.5 Z"/></g>
<g><path style="opacity:1" fill="#eff0ef" d="M -0.5,979.5 C 6.16667,979.5 12.8333,979.5 19.5,979.5C 19.5,986.167 19.5,992.833 19.5,999.5C 12.8333,999.5 6.16667,999.5 -0.5,999.5C -0.5,992.833 -0.5,986.167 -0.5,979.5 Z"/></g>
<g><path style="opacity:1" fill="#fefffe" d="M 19.5,979.5 C 26.1667,979.5 32.8333,979.5 39.5,979.5C 39.5,986.167 39.5,992.833 39.5,999.5C 32.8333,999.5 26.1667,999.5 19.5,999.5C 19.5,992.833 19.5,986.167 19.5,979.5 Z"/></g>
<g><path style="opacity:1" fill="#eff0ef" d="M 39.5,979.5 C 46.1667,979.5 52.8333,979.5 59.5,979.5C 59.5,986.167 59.5,992.833 59.5,999.5C 52.8333,999.5 46.1667,999.5 39.5,999.5C 39.5,992.833 39.5,986.167 39.5,979.5 Z"/></g>
<g><path style="opacity:1" fill="#fefffe" d="M -0.5,999.5 C 6.16667,999.5 12.8333,999.5 19.5,999.5C 19.5,1006.17 19.5,1012.83 19.5,1019.5C 12.8333,1019.5 6.16667,1019.5 -0.5,1019.5C -0.5,1012.83 -0.5,1006.17 -0.5,999.5 Z"/></g>
<g><path style="opacity:1" fill="#eff0ef" d="M 19.5,999.5 C 26.1667,999.5 32.8333,999.5 39.5,999.5C 39.5,1006.17 39.5,1012.83 39.5,1019.5C 32.8333,1019.5 26.1667,1019.5 19.5,1019.5C 19.5,1012.83 19.5,1006.17 19.5,999.5 Z"/></g>
<g><path style="opacity:1" fill="#fefffe" d="M 39.5,999.5 C 46.1667,999.5 52.8333,999.5 59.5,999.5C 59.5,1006.17 59.5,1012.83 59.5,1019.5C 52.8333,1019.5 46.1667,1019.5 39.5,1019.5C 39.5,1012.83 39.5,1006.17 39.5,999.5 Z"/></g>
<g><path style="opacity:1" fill="#eff0ef" d="M -0.5,1019.5 C 6.16667,1019.5 12.8333,1019.5 19.5,1019.5C 19.5,1026.17 19.5,1032.83 19.5,1039.5C 12.8333,1039.5 6.16667,1039.5 -0.5,1039.5C -0.5,1032.83 -0.5,1026.17 -0.5,1019.5 Z"/></g>
<g><path style="opacity:1" fill="#fefffe" d="M 19.5,1019.5 C 26.1667,1019.5 32.8333,1019.5 39.5,1019.5C 39.5,1026.17 39.5,1032.83 39.5,1039.5C 32.8333,1039.5 26.1667,1039.5 19.5,1039.5C 19.5,1032.83 19.5,1026.17 19.5,1019.5 Z"/></g>
<g><path style="opacity:1" fill="#eff0ef" d="M 39.5,1019.5 C 46.1667,1019.5 52.8333,1019.5 59.5,1019.5C 59.5,1026.17 59.5,1032.83 59.5,1039.5C 52.8333,1039.5 46.1667,1039.5 39.5,1039.5C 39.5,1032.83 39.5,1026.17 39.5,1019.5 Z"/></g>
</svg>
